<svg width="160" height="47" viewBox="0 0 160 47" fill="none" xmlns="http://www.w3.org/2000/svg">
<rect width="160" height="47" rx="5" fill="black"/>
<path d="M48.4235 8.88363C49.3085 8.88363 50.0732 9.05053 50.7176 9.38435C51.3697 9.7104 51.8665 10.1801 52.2081 10.7934C52.5574 11.4067 52.7321 12.1286 52.7321 12.9593C52.7321 13.7899 52.5574 14.5119 52.2081 15.1252C51.8665 15.7307 51.3697 16.1965 50.7176 16.5226C50.0732 16.8409 49.3085 17 48.4235 17H45.8966V8.88363H48.4235ZM48.4235 16.1266C49.4716 16.1266 50.2712 15.8511 50.8224 15.2999C51.3735 14.7409 51.6491 13.9607 51.6491 12.9593C51.6491 11.9501 51.3697 11.1621 50.8107 10.5954C50.2595 10.0287 49.4638 9.74534 48.4235 9.74534H46.9563V16.1266H48.4235ZM56.9129 17.1048C56.3152 17.1048 55.7717 16.9689 55.2827 16.6972C54.8013 16.4255 54.4209 16.0413 54.1415 15.5444C53.8698 15.0398 53.7339 14.4576 53.7339 13.7977C53.7339 13.1456 53.8736 12.5711 54.1531 12.0743C54.4404 11.5697 54.8285 11.1854 55.3176 10.9215C55.8067 10.6497 56.354 10.5139 56.9595 10.5139C57.565 10.5139 58.1123 10.6497 58.6014 10.9215C59.0905 11.1854 59.4748 11.5658 59.7542 12.0626C60.0415 12.5595 60.1851 13.1378 60.1851 13.7977C60.1851 14.4576 60.0376 15.0398 59.7426 15.5444C59.4553 16.0413 59.0633 16.4255 58.5665 16.6972C58.0696 16.9689 57.5184 17.1048 56.9129 17.1048ZM56.9129 16.1732C57.2933 16.1732 57.6504 16.0839 57.9842 15.9054C58.318 15.7268 58.5859 15.459 58.7877 15.1019C58.9973 14.7448 59.1021 14.3101 59.1021 13.7977C59.1021 13.2853 59.0012 12.8506 58.7994 12.4935C58.5975 12.1364 58.3336 11.8724 58.0075 11.7017C57.6815 11.5231 57.3282 11.4338 56.9479 11.4338C56.5597 11.4338 56.2026 11.5231 55.8765 11.7017C55.5582 11.8724 55.3021 12.1364 55.108 12.4935C54.9139 12.8506 54.8169 13.2853 54.8169 13.7977C54.8169 14.3178 54.91 14.7564 55.0963 15.1136C55.2904 15.4707 55.5466 15.7385 55.8649 15.917C56.1832 16.0878 56.5325 16.1732 56.9129 16.1732ZM70.079 10.6187L68.0878 17H66.9932L65.4561 11.9345L63.9189 17H62.8243L60.8215 10.6187H61.9044L63.3716 15.9753L64.9553 10.6187H66.0383L67.587 15.9869L69.031 10.6187H70.079ZM74.2398 10.5022C75.0161 10.5022 75.6449 10.739 76.1263 11.2126C76.6076 11.6784 76.8482 12.3538 76.8482 13.2388V17H75.8002V13.3901C75.8002 12.7536 75.6411 12.2684 75.3228 11.9345C75.0045 11.593 74.5697 11.4222 74.0186 11.4222C73.4596 11.4222 73.0132 11.5968 72.6794 11.9462C72.3534 12.2955 72.1903 12.804 72.1903 13.4716V17H71.1307V10.6187H72.1903V11.527C72.3999 11.2009 72.6833 10.9486 73.0404 10.7701C73.4053 10.5915 73.8051 10.5022 74.2398 10.5022ZM79.6389 8.3829V17H78.5792V8.3829H79.6389ZM84.228 17.1048C83.6302 17.1048 83.0868 16.9689 82.5977 16.6972C82.1164 16.4255 81.736 16.0413 81.4565 15.5444C81.1848 15.0398 81.049 14.4576 81.049 13.7977C81.049 13.1456 81.1887 12.5711 81.4682 12.0743C81.7554 11.5697 82.1436 11.1854 82.6327 10.9215C83.1217 10.6497 83.669 10.5139 84.2746 10.5139C84.8801 10.5139 85.4274 10.6497 85.9165 10.9215C86.4055 11.1854 86.7898 11.5658 87.0693 12.0626C87.3565 12.5595 87.5002 13.1378 87.5002 13.7977C87.5002 14.4576 87.3527 15.0398 87.0577 15.5444C86.7704 16.0413 86.3784 16.4255 85.8815 16.6972C85.3847 16.9689 84.8335 17.1048 84.228 17.1048ZM84.228 16.1732C84.6084 16.1732 84.9655 16.0839 85.2993 15.9054C85.6331 15.7268 85.9009 15.459 86.1028 15.1019C86.3124 14.7448 86.4172 14.3101 86.4172 13.7977C86.4172 13.2853 86.3163 12.8506 86.1144 12.4935C85.9126 12.1364 85.6486 11.8724 85.3226 11.7017C84.9965 11.5231 84.6433 11.4338 84.2629 11.4338C83.8748 11.4338 83.5177 11.5231 83.1916 11.7017C82.8733 11.8724 82.6171 12.1364 82.4231 12.4935C82.229 12.8506 82.1319 13.2853 82.1319 13.7977C82.1319 14.3178 82.2251 14.7564 82.4114 15.1136C82.6055 15.4707 82.8617 15.7385 83.18 15.917C83.4982 16.0878 83.8476 16.1732 84.228 16.1732ZM88.4975 13.7861C88.4975 13.134 88.6295 12.5634 88.8934 12.0743C89.1574 11.5774 89.5184 11.1932 89.9764 10.9215C90.4422 10.6497 90.9584 10.5139 91.5251 10.5139C92.0841 10.5139 92.5693 10.6342 92.9807 10.8749C93.3922 11.1155 93.6988 11.4183 93.9007 11.7832V10.6187H94.972V17H93.9007V15.8122C93.6911 16.1849 93.3766 16.4954 92.9574 16.7438C92.546 16.9845 92.0647 17.1048 91.5135 17.1048C90.9468 17.1048 90.4344 16.9651 89.9764 16.6856C89.5184 16.4061 89.1574 16.0141 88.8934 15.5095C88.6295 15.0049 88.4975 14.4304 88.4975 13.7861ZM93.9007 13.7977C93.9007 13.3164 93.8036 12.8972 93.6095 12.5401C93.4155 12.183 93.1515 11.9113 92.8177 11.7249C92.4916 11.5309 92.1307 11.4338 91.7347 11.4338C91.3388 11.4338 90.9778 11.527 90.6518 11.7133C90.3257 11.8996 90.0657 12.1713 89.8716 12.5284C89.6775 12.8855 89.5805 13.3047 89.5805 13.7861C89.5805 14.2751 89.6775 14.7021 89.8716 15.067C90.0657 15.4241 90.3257 15.6997 90.6518 15.8938C90.9778 16.0801 91.3388 16.1732 91.7347 16.1732C92.1307 16.1732 92.4916 16.0801 92.8177 15.8938C93.1515 15.6997 93.4155 15.4241 93.6095 15.067C93.8036 14.7021 93.9007 14.279 93.9007 13.7977ZM96.3668 13.7861C96.3668 13.134 96.4988 12.5634 96.7627 12.0743C97.0267 11.5774 97.3876 11.1932 97.8457 10.9215C98.3115 10.6497 98.8316 10.5139 99.4061 10.5139C99.9029 10.5139 100.365 10.6303 100.792 10.8632C101.219 11.0884 101.545 11.3872 101.77 11.7599V8.3829H102.841V17H101.77V15.8006C101.56 16.181 101.25 16.4954 100.838 16.7438C100.427 16.9845 99.9456 17.1048 99.3944 17.1048C98.8277 17.1048 98.3115 16.9651 97.8457 16.6856C97.3876 16.4061 97.0267 16.0141 96.7627 15.5095C96.4988 15.0049 96.3668 14.4304 96.3668 13.7861ZM101.77 13.7977C101.77 13.3164 101.673 12.8972 101.479 12.5401C101.285 12.183 101.021 11.9113 100.687 11.7249C100.361 11.5309 99.9999 11.4338 99.604 11.4338C99.2081 11.4338 98.8471 11.527 98.5211 11.7133C98.195 11.8996 97.9349 12.1713 97.7409 12.5284C97.5468 12.8855 97.4498 13.3047 97.4498 13.7861C97.4498 14.2751 97.5468 14.7021 97.7409 15.067C97.9349 15.4241 98.195 15.6997 98.5211 15.8938C98.8471 16.0801 99.2081 16.1732 99.604 16.1732C99.9999 16.1732 100.361 16.0801 100.687 15.8938C101.021 15.6997 101.285 15.4241 101.479 15.067C101.673 14.7021 101.77 14.279 101.77 13.7977ZM110.52 17.1048C109.922 17.1048 109.378 16.9689 108.889 16.6972C108.408 16.4255 108.028 16.0413 107.748 15.5444C107.476 15.0398 107.341 14.4576 107.341 13.7977C107.341 13.1456 107.48 12.5711 107.76 12.0743C108.047 11.5697 108.435 11.1854 108.924 10.9215C109.413 10.6497 109.961 10.5139 110.566 10.5139C111.172 10.5139 111.719 10.6497 112.208 10.9215C112.697 11.1854 113.081 11.5658 113.361 12.0626C113.648 12.5595 113.792 13.1378 113.792 13.7977C113.792 14.4576 113.644 15.0398 113.349 15.5444C113.062 16.0413 112.67 16.4255 112.173 16.6972C111.676 16.9689 111.125 17.1048 110.52 17.1048ZM110.52 16.1732C110.9 16.1732 111.257 16.0839 111.591 15.9054C111.925 15.7268 112.193 15.459 112.394 15.1019C112.604 14.7448 112.709 14.3101 112.709 13.7977C112.709 13.2853 112.608 12.8506 112.406 12.4935C112.204 12.1364 111.94 11.8724 111.614 11.7017C111.288 11.5231 110.935 11.4338 110.555 11.4338C110.166 11.4338 109.809 11.5231 109.483 11.7017C109.165 11.8724 108.909 12.1364 108.715 12.4935C108.521 12.8506 108.424 13.2853 108.424 13.7977C108.424 14.3178 108.517 14.7564 108.703 15.1136C108.897 15.4707 109.153 15.7385 109.472 15.917C109.79 16.0878 110.139 16.1732 110.52 16.1732ZM118.294 10.5022C119.07 10.5022 119.699 10.739 120.181 11.2126C120.662 11.6784 120.903 12.3538 120.903 13.2388V17H119.855V13.3901C119.855 12.7536 119.695 12.2684 119.377 11.9345C119.059 11.593 118.624 11.4222 118.073 11.4222C117.514 11.4222 117.068 11.5968 116.734 11.9462C116.408 12.2955 116.245 12.804 116.245 13.4716V17H115.185V10.6187H116.245V11.527C116.454 11.2009 116.738 10.9486 117.095 10.7701C117.46 10.5915 117.859 10.5022 118.294 10.5022ZM127.031 11.492V15.2533C127.031 15.5638 127.097 15.7851 127.229 15.917C127.361 16.0413 127.59 16.1034 127.916 16.1034H128.696V17H127.741C127.151 17 126.708 16.8641 126.413 16.5924C126.118 16.3207 125.971 15.8743 125.971 15.2533V11.492H125.144V10.6187H125.971V9.01172H127.031V10.6187H128.696V11.492H127.031ZM133.147 10.5022C133.628 10.5022 134.063 10.607 134.451 10.8167C134.839 11.0185 135.142 11.3251 135.36 11.7366C135.585 12.148 135.697 12.6488 135.697 13.2388V17H134.649V13.3901C134.649 12.7536 134.49 12.2684 134.172 11.9345C133.854 11.593 133.419 11.4222 132.868 11.4222C132.309 11.4222 131.862 11.5968 131.528 11.9462C131.202 12.2955 131.039 12.804 131.039 13.4716V17H129.98V8.3829H131.039V11.527C131.249 11.2009 131.536 10.9486 131.901 10.7701C132.274 10.5915 132.689 10.5022 133.147 10.5022ZM143.251 13.5648C143.251 13.7666 143.239 13.9801 143.216 14.2053H138.115C138.154 14.8341 138.368 15.327 138.756 15.6841C139.152 16.0335 139.629 16.2082 140.188 16.2082C140.646 16.2082 141.026 16.1034 141.329 15.8938C141.64 15.6764 141.857 15.3891 141.981 15.032H143.123C142.952 15.6453 142.61 16.1461 142.098 16.5342C141.585 16.9146 140.949 17.1048 140.188 17.1048C139.583 17.1048 139.039 16.9689 138.558 16.6972C138.084 16.4255 137.712 16.0413 137.44 15.5444C137.168 15.0398 137.032 14.4576 137.032 13.7977C137.032 13.1378 137.164 12.5595 137.428 12.0626C137.692 11.5658 138.061 11.1854 138.535 10.9215C139.016 10.6497 139.567 10.5139 140.188 10.5139C140.794 10.5139 141.329 10.6459 141.795 10.9098C142.261 11.1738 142.618 11.5386 142.866 12.0044C143.123 12.4624 143.251 12.9826 143.251 13.5648ZM142.156 13.3436C142.156 12.9399 142.067 12.5944 141.888 12.3072C141.71 12.0122 141.465 11.7909 141.155 11.6434C140.852 11.4882 140.514 11.4105 140.141 11.4105C139.606 11.4105 139.148 11.5813 138.767 11.9229C138.395 12.2645 138.181 12.738 138.127 13.3436H142.156Z" fill="white"/>
<path d="M31.0618 37.8C29.4285 39.3833 27.6451 39.1333 25.9285 38.3833C24.1118 37.6167 22.4451 37.5833 20.5285 38.3833C18.1285 39.4167 16.8618 39.1167 15.4285 37.8C7.29513 29.4167 8.49513 16.65 17.7285 16.1833C19.9785 16.3 21.5451 17.4167 22.8618 17.5167C24.8285 17.1167 26.7118 15.9667 28.8118 16.1167C31.3285 16.3167 33.2285 17.3167 34.4785 19.1167C29.2785 22.2333 30.5118 29.0833 35.2785 31C34.3285 33.5 33.0951 35.9833 31.0451 37.8167L31.0618 37.8ZM22.6951 16.0833C22.4451 12.3667 25.4618 9.3 28.9285 9C29.4118 13.3 25.0285 16.5 22.6951 16.0833Z" fill="white"/>
<path d="M52.3617 32.7156H45.9201L44.7335 36H42.6993L48.039 21.3156H50.2639L55.5825 36H53.5483L52.3617 32.7156ZM51.8108 31.1476L49.1409 23.6889L46.471 31.1476H51.8108ZM59.838 26.5283C60.2194 25.8643 60.7845 25.3134 61.5332 24.8755C62.296 24.4234 63.1789 24.1974 64.1818 24.1974C65.2131 24.1974 66.1454 24.4446 66.9789 24.939C67.8265 25.4335 68.4904 26.1327 68.9707 27.0368C69.451 27.9268 69.6911 28.9651 69.6911 30.1517C69.6911 31.3242 69.451 32.3695 68.9707 33.2877C68.4904 34.2059 67.8265 34.9193 66.9789 35.4279C66.1454 35.9364 65.2131 36.1907 64.1818 36.1907C63.193 36.1907 62.3172 35.9717 61.5543 35.5338C60.8056 35.0818 60.2335 34.5238 59.838 33.8599V41.5093H57.9097V24.3881H59.838V26.5283ZM67.7205 30.1517C67.7205 29.2758 67.5439 28.513 67.1908 27.8632C66.8376 27.2134 66.3573 26.719 65.7499 26.3799C65.1566 26.0409 64.4997 25.8714 63.7792 25.8714C63.0729 25.8714 62.4161 26.048 61.8086 26.4011C61.2153 26.7402 60.735 27.2416 60.3677 27.9056C60.0146 28.5554 59.838 29.3112 59.838 30.1729C59.838 31.0487 60.0146 31.8186 60.3677 32.4825C60.735 33.1323 61.2153 33.6338 61.8086 33.987C62.4161 34.326 63.0729 34.4955 63.7792 34.4955C64.4997 34.4955 65.1566 34.326 65.7499 33.987C66.3573 33.6338 66.8376 33.1323 67.1908 32.4825C67.5439 31.8186 67.7205 31.0416 67.7205 30.1517ZM74.1575 26.5283C74.5389 25.8643 75.104 25.3134 75.8527 24.8755C76.6155 24.4234 77.4984 24.1974 78.5014 24.1974C79.5326 24.1974 80.4649 24.4446 81.2984 24.939C82.146 25.4335 82.8099 26.1327 83.2902 27.0368C83.7705 27.9268 84.0107 28.9651 84.0107 30.1517C84.0107 31.3242 83.7705 32.3695 83.2902 33.2877C82.8099 34.2059 82.146 34.9193 81.2984 35.4279C80.4649 35.9364 79.5326 36.1907 78.5014 36.1907C77.5125 36.1907 76.6367 35.9717 75.8739 35.5338C75.1252 35.0818 74.553 34.5238 74.1575 33.8599V41.5093H72.2293V24.3881H74.1575V26.5283ZM82.04 30.1517C82.04 29.2758 81.8635 28.513 81.5103 27.8632C81.1571 27.2134 80.6768 26.719 80.0694 26.3799C79.4761 26.0409 78.8192 25.8714 78.0988 25.8714C77.3924 25.8714 76.7356 26.048 76.1281 26.4011C75.5348 26.7402 75.0545 27.2416 74.6872 27.9056C74.3341 28.5554 74.1575 29.3112 74.1575 30.1729C74.1575 31.0487 74.3341 31.8186 74.6872 32.4825C75.0545 33.1323 75.5348 33.6338 76.1281 33.987C76.7356 34.326 77.3924 34.4955 78.0988 34.4955C78.8192 34.4955 79.4761 34.326 80.0694 33.987C80.6768 33.6338 81.1571 33.1323 81.5103 32.4825C81.8635 31.8186 82.04 31.0416 82.04 30.1517ZM96.8808 36.1483C95.9061 36.1483 95.0303 35.9788 94.2533 35.6398C93.4905 35.2866 92.8901 34.8063 92.4522 34.1989C92.0143 33.5773 91.7883 32.8639 91.7742 32.0587H93.8295C93.9002 32.7509 94.1827 33.3372 94.6771 33.8175C95.1857 34.2836 95.9203 34.5167 96.8808 34.5167C97.7991 34.5167 98.5195 34.2907 99.0422 33.8387C99.579 33.3725 99.8474 32.7792 99.8474 32.0587C99.8474 31.4937 99.692 31.0346 99.3812 30.6814C99.0704 30.3283 98.682 30.0599 98.2158 29.8762C97.7496 29.6926 97.121 29.4948 96.3299 29.2829C95.3552 29.0286 94.5712 28.7744 93.9779 28.5201C93.3987 28.2658 92.8972 27.8703 92.4734 27.3335C92.0637 26.7825 91.8589 26.048 91.8589 25.1297C91.8589 24.3245 92.0637 23.6112 92.4734 22.9896C92.8831 22.368 93.4552 21.8877 94.1898 21.5487C94.9385 21.2097 95.7931 21.0402 96.7537 21.0402C98.1381 21.0402 99.2682 21.3863 100.144 22.0784C101.034 22.7706 101.535 23.6889 101.649 24.8331H99.5295C99.4589 24.268 99.1623 23.7736 98.6396 23.3498C98.1169 22.9119 97.4247 22.6929 96.563 22.6929C95.7578 22.6929 95.1009 22.9048 94.5924 23.3286C94.0838 23.7383 93.8295 24.3175 93.8295 25.0662C93.8295 25.603 93.9779 26.0409 94.2745 26.3799C94.5853 26.719 94.9597 26.9803 95.3976 27.1639C95.8496 27.3335 96.4782 27.5312 97.2835 27.7573C98.2582 28.0257 99.0422 28.2941 99.6355 28.5625C100.229 28.8167 100.737 29.2193 101.161 29.7703C101.585 30.3071 101.797 31.0416 101.797 31.974C101.797 32.6944 101.606 33.3725 101.225 34.0082C100.843 34.6439 100.278 35.1595 99.5295 35.555C98.7808 35.9506 97.8979 36.1483 96.8808 36.1483ZM106.986 25.9773V32.8216C106.986 33.3866 107.107 33.7892 107.347 34.0294C107.587 34.2554 108.004 34.3684 108.597 34.3684H110.017V36H108.279C107.205 36 106.4 35.7528 105.863 35.2584C105.327 34.7639 105.058 33.9517 105.058 32.8216V25.9773H103.554V24.3881H105.058V21.4639H106.986V24.3881H110.017V25.9773H106.986ZM117.417 36.1907C116.329 36.1907 115.341 35.9435 114.451 35.4491C113.575 34.9546 112.883 34.2554 112.374 33.3513C111.88 32.4331 111.632 31.3736 111.632 30.1729C111.632 28.9862 111.887 27.9409 112.395 27.0368C112.918 26.1186 113.624 25.4193 114.514 24.939C115.404 24.4446 116.4 24.1974 117.502 24.1974C118.604 24.1974 119.6 24.4446 120.49 24.939C121.38 25.4193 122.079 26.1115 122.587 27.0156C123.11 27.9197 123.371 28.9721 123.371 30.1729C123.371 31.3736 123.103 32.4331 122.566 33.3513C122.044 34.2554 121.33 34.9546 120.426 35.4491C119.522 35.9435 118.519 36.1907 117.417 36.1907ZM117.417 34.4955C118.109 34.4955 118.759 34.3331 119.367 34.0082C119.974 33.6833 120.461 33.1959 120.829 32.5461C121.21 31.8963 121.401 31.1052 121.401 30.1729C121.401 29.2405 121.217 28.4494 120.85 27.7996C120.483 27.1498 120.002 26.6695 119.409 26.3587C118.816 26.0338 118.173 25.8714 117.481 25.8714C116.774 25.8714 116.125 26.0338 115.531 26.3587C114.952 26.6695 114.486 27.1498 114.133 27.7996C113.78 28.4494 113.603 29.2405 113.603 30.1729C113.603 31.1193 113.773 31.9175 114.112 32.5673C114.465 33.2171 114.931 33.7045 115.51 34.0294C116.089 34.3401 116.725 34.4955 117.417 34.4955ZM127.835 26.274C128.174 25.61 128.654 25.0944 129.276 24.7271C129.912 24.3599 130.681 24.1762 131.586 24.1762V26.168H131.077C128.916 26.168 127.835 27.3405 127.835 29.6855V36H125.907V24.3881H127.835V26.274ZM144.406 29.7491C144.406 30.1164 144.385 30.5048 144.343 30.9145H135.062C135.132 32.0587 135.521 32.9558 136.227 33.6056C136.948 34.2413 137.816 34.5591 138.833 34.5591C139.667 34.5591 140.359 34.3684 140.91 33.987C141.475 33.5915 141.871 33.0688 142.097 32.419H144.173C143.862 33.5349 143.241 34.4461 142.308 35.1524C141.376 35.8446 140.218 36.1907 138.833 36.1907C137.732 36.1907 136.743 35.9435 135.867 35.4491C135.005 34.9546 134.327 34.2554 133.833 33.3513C133.338 32.4331 133.091 31.3736 133.091 30.1729C133.091 28.9721 133.331 27.9197 133.811 27.0156C134.292 26.1115 134.963 25.4193 135.824 24.939C136.7 24.4446 137.703 24.1974 138.833 24.1974C139.935 24.1974 140.91 24.4376 141.758 24.9178C142.605 25.3981 143.255 26.0621 143.707 26.9097C144.173 27.7431 144.406 28.6896 144.406 29.7491ZM142.414 29.3465C142.414 28.6119 142.252 27.9833 141.927 27.4606C141.602 26.9238 141.157 26.5212 140.592 26.2528C140.041 25.9703 139.427 25.829 138.749 25.829C137.774 25.829 136.94 26.1398 136.248 26.7613C135.57 27.3829 135.182 28.2446 135.083 29.3465H142.414Z" fill="white"/>
</svg>
