<svg width="25" height="26" viewBox="0 0 25 26" fill="none" xmlns="http://www.w3.org/2000/svg">
<path d="M22.714 10.9599H21.8749V10.9167H12.4999V15.0833H18.3869C17.528 17.5089 15.2202 19.25 12.4999 19.25C9.04836 19.25 6.24992 16.4516 6.24992 13C6.24992 9.54844 9.04836 6.75 12.4999 6.75C14.0931 6.75 15.5426 7.35104 16.6463 8.33282L19.5926 5.38646C17.7322 3.65261 15.2437 2.58334 12.4999 2.58334C6.74731 2.58334 2.08325 7.2474 2.08325 13C2.08325 18.7526 6.74731 23.4167 12.4999 23.4167C18.2525 23.4167 22.9166 18.7526 22.9166 13C22.9166 12.3016 22.8447 11.6198 22.714 10.9599Z" fill="#FFC107"/>
<path d="M3.28442 8.15156L6.70682 10.6615C7.63286 8.36875 9.87557 6.75 12.5 6.75C14.0933 6.75 15.5428 7.35104 16.6464 8.33281L19.5928 5.38646C17.7323 3.65261 15.2438 2.58334 12.5 2.58334C8.49901 2.58334 5.02922 4.84219 3.28442 8.15156Z" fill="#FF3D00"/>
<path d="M12.5 23.4167C15.1906 23.4167 17.6354 22.387 19.4839 20.7125L16.2599 17.9844C15.1789 18.8064 13.8581 19.2511 12.5 19.25C9.79062 19.25 7.4901 17.5224 6.62344 15.1115L3.22656 17.7286C4.95052 21.1021 8.45156 23.4167 12.5 23.4167Z" fill="#4CAF50"/>
<path d="M22.7141 10.9599H21.875V10.9167H12.5V15.0833H18.387C17.9762 16.2377 17.2361 17.2464 16.2583 17.9849L16.2599 17.9839L19.4839 20.712C19.2557 20.9193 22.9167 18.2083 22.9167 13C22.9167 12.3016 22.8448 11.6198 22.7141 10.9599Z" fill="#1976D2"/>
</svg>
