<svg width="122" height="76" viewBox="0 0 122 76" fill="none" xmlns="http://www.w3.org/2000/svg">
<circle cx="14" cy="62" r="14" fill="#1B1B1B"/>
<mask id="mask0_38_20" style="mask-type:alpha" maskUnits="userSpaceOnUse" x="9" y="57" width="10" height="10">
<path d="M10.875 60.0002C11.3352 60.0002 11.7083 59.6271 11.7083 59.1668C11.7083 58.7066 11.3352 58.3335 10.875 58.3335C10.4147 58.3335 10.0416 58.7066 10.0416 59.1668C10.0416 59.6271 10.4147 60.0002 10.875 60.0002Z" fill="white" stroke="white" stroke-width="0.833333"/>
<path d="M10.0417 61.25H11.7084V66.4583H10.0417V61.25ZM13.3751 63.2292V66.4583H14.8334V63.5417C14.8334 63.0208 15.1459 62.6042 15.6667 62.6042C16.1876 62.6042 16.5001 63.125 16.5001 63.5417V66.4583H17.9584V63.2292C17.9584 62.6042 17.2292 61.25 15.6667 61.25C14.1042 61.25 13.3751 62.6042 13.3751 63.2292Z" fill="white" stroke="white" stroke-width="0.833333" stroke-linejoin="round"/>
</mask>
<g mask="url(#mask0_38_20)">
<path d="M9 57.5H19V67.5H9V57.5Z" fill="white"/>
</g>
<circle cx="61" cy="14" r="14" fill="#1B1B1B"/>
<path fill-rule="evenodd" clip-rule="evenodd" d="M58.9386 9.53C59.4718 9.50545 59.6418 9.5 61 9.5C62.3582 9.5 62.5282 9.50591 63.0609 9.53C63.5936 9.55409 63.9573 9.63909 64.2755 9.76227C64.6086 9.88818 64.9109 10.085 65.1609 10.3395C65.4155 10.5891 65.6118 10.8909 65.7373 11.2245C65.8609 11.5427 65.9455 11.9064 65.97 12.4382C65.9945 12.9723 66 13.1423 66 14.5C66 15.8582 65.9941 16.0282 65.97 16.5614C65.9459 17.0932 65.8609 17.4568 65.7373 17.775C65.6118 18.1087 65.4151 18.411 65.1609 18.6609C64.9109 18.9155 64.6086 19.1118 64.2755 19.2373C63.9573 19.3609 63.5936 19.4455 63.0618 19.47C62.5282 19.4945 62.3582 19.5 61 19.5C59.6418 19.5 59.4718 19.4941 58.9386 19.47C58.4068 19.4459 58.0432 19.3609 57.725 19.2373C57.3913 19.1118 57.089 18.9151 56.8391 18.6609C56.5847 18.4112 56.3879 18.109 56.2623 17.7755C56.1391 17.4573 56.0545 17.0936 56.03 16.5618C56.0055 16.0277 56 15.8577 56 14.5C56 13.1418 56.0059 12.9718 56.03 12.4391C56.0541 11.9064 56.1391 11.5427 56.2623 11.2245C56.3881 10.8909 56.5851 10.5888 56.8395 10.3391C57.0891 10.0848 57.3911 9.88793 57.7245 9.76227C58.0427 9.63909 58.4064 9.55455 58.9382 9.53H58.9386ZM63.0205 10.43C62.4932 10.4059 62.335 10.4009 61 10.4009C59.665 10.4009 59.5068 10.4059 58.9795 10.43C58.4918 10.4523 58.2273 10.5336 58.0509 10.6023C57.8177 10.6932 57.6509 10.8009 57.4759 10.9759C57.31 11.1373 57.1824 11.3338 57.1023 11.5509C57.0336 11.7273 56.9523 11.9918 56.93 12.4795C56.9059 13.0068 56.9009 13.165 56.9009 14.5C56.9009 15.835 56.9059 15.9932 56.93 16.5205C56.9523 17.0082 57.0336 17.2727 57.1023 17.4491C57.1823 17.6659 57.31 17.8627 57.4759 18.0241C57.6373 18.19 57.8341 18.3177 58.0509 18.3977C58.2273 18.4664 58.4918 18.5477 58.9795 18.57C59.5068 18.5941 59.6645 18.5991 61 18.5991C62.3355 18.5991 62.4932 18.5941 63.0205 18.57C63.5082 18.5477 63.7727 18.4664 63.9491 18.3977C64.1823 18.3068 64.3491 18.1991 64.5241 18.0241C64.69 17.8627 64.8177 17.6659 64.8977 17.4491C64.9664 17.2727 65.0477 17.0082 65.07 16.5205C65.0941 15.9932 65.0991 15.835 65.0991 14.5C65.0991 13.165 65.0941 13.0068 65.07 12.4795C65.0477 11.9918 64.9664 11.7273 64.8977 11.5509C64.8068 11.3177 64.6991 11.1509 64.5241 10.9759C64.3627 10.81 64.1662 10.6824 63.9491 10.6023C63.7727 10.5336 63.5082 10.4523 63.0205 10.43ZM60.3614 16.0414C60.718 16.1898 61.1152 16.2099 61.485 16.0981C61.8548 15.9862 62.1743 15.7495 62.3889 15.4283C62.6036 15.1071 62.7 14.7213 62.6618 14.3369C62.6237 13.9524 62.4532 13.5932 62.1795 13.3205C62.0051 13.1461 61.7942 13.0126 61.562 12.9296C61.3298 12.8466 61.082 12.8161 60.8366 12.8403C60.5912 12.8645 60.3542 12.9428 60.1426 13.0696C59.9311 13.1964 59.7503 13.3685 59.6133 13.5736C59.4763 13.7786 59.3864 14.0115 59.3502 14.2554C59.314 14.4994 59.3323 14.7483 59.4039 14.9843C59.4754 15.2203 59.5984 15.4376 59.764 15.6203C59.9295 15.8031 60.1336 15.9469 60.3614 16.0414ZM59.1827 12.6827C59.4214 12.4441 59.7047 12.2548 60.0165 12.1256C60.3283 11.9965 60.6625 11.93 61 11.93C61.3375 11.93 61.6717 11.9965 61.9835 12.1256C62.2953 12.2548 62.5786 12.4441 62.8173 12.6827C63.0559 12.9214 63.2452 13.2047 63.3744 13.5165C63.5035 13.8283 63.57 14.1625 63.57 14.5C63.57 14.8375 63.5035 15.1717 63.3744 15.4835C63.2452 15.7953 63.0559 16.0786 62.8173 16.3173C62.3353 16.7992 61.6816 17.07 61 17.07C60.3184 17.07 59.6647 16.7992 59.1827 16.3173C58.7008 15.8353 58.43 15.1816 58.43 14.5C58.43 13.8184 58.7008 13.1647 59.1827 12.6827ZM64.14 12.3127C64.1991 12.2569 64.2465 12.1899 64.2792 12.1154C64.312 12.041 64.3295 11.9608 64.3306 11.8795C64.3318 11.7982 64.3167 11.7175 64.2861 11.6422C64.2556 11.5669 64.2102 11.4984 64.1527 11.4409C64.0952 11.3834 64.0268 11.3381 63.9515 11.3075C63.8761 11.2769 63.7954 11.2618 63.7141 11.263C63.6328 11.2642 63.5526 11.2817 63.4782 11.3144C63.4038 11.3472 63.3367 11.3945 63.2809 11.4536C63.1724 11.5686 63.113 11.7214 63.1153 11.8795C63.1176 12.0376 63.1815 12.1886 63.2933 12.3004C63.4051 12.4122 63.556 12.476 63.7141 12.4783C63.8722 12.4806 64.025 12.4212 64.14 12.3127Z" fill="white"/>
<circle cx="108" cy="14" r="14" fill="#1B1B1B"/>
<path d="M114.301 10.6862C113.849 10.8866 113.363 11.0221 112.852 11.0833C113.379 10.7679 113.773 10.2715 113.961 9.68664C113.466 9.98081 112.924 10.1879 112.359 10.2988C111.979 9.89298 111.475 9.62398 110.927 9.53358C110.378 9.44319 109.815 9.53647 109.325 9.79892C108.834 10.0614 108.445 10.4783 108.216 10.9851C107.987 11.4918 107.931 12.0599 108.058 12.6013C107.055 12.5509 106.073 12.2901 105.177 11.8357C104.281 11.3814 103.49 10.7437 102.857 9.96402C102.64 10.3378 102.515 10.7712 102.515 11.2328C102.515 11.6483 102.617 12.0575 102.813 12.424C103.009 12.7905 103.292 13.103 103.638 13.3337C103.237 13.321 102.845 13.2127 102.495 13.0179V13.0504C102.495 13.6332 102.696 14.198 103.065 14.6491C103.434 15.1002 103.948 15.4097 104.519 15.5251C104.147 15.6258 103.758 15.6406 103.379 15.5685C103.54 16.0699 103.854 16.5084 104.277 16.8226C104.7 17.1368 105.21 17.3109 105.737 17.3205C104.843 18.0223 103.739 18.403 102.602 18.4013C102.401 18.4014 102.2 18.3896 102 18.3661C103.154 19.1079 104.497 19.5015 105.868 19.5C110.511 19.5 113.049 15.6546 113.049 12.3196C113.049 12.2112 113.046 12.1018 113.042 11.9934C113.535 11.6364 113.961 11.1943 114.3 10.6878L114.301 10.6862Z" fill="white"/>
<circle cx="108" cy="62" r="14" fill="#1B1B1B"/>
<path fill-rule="evenodd" clip-rule="evenodd" d="M113 62.5C113 65.2612 110.761 67.5 108 67.5C105.239 67.5 103 65.2612 103 62.5C103 59.7387 105.239 57.5 108 57.5C110.761 57.5 113 59.7387 113 62.5ZM111.203 62.1075C111.284 62.2229 111.33 62.3592 111.335 62.5C111.337 62.6378 111.3 62.7734 111.229 62.891C111.157 63.0087 111.053 63.1037 110.93 63.165C110.936 63.2383 110.936 63.3117 110.93 63.385C110.93 64.505 109.625 65.415 108.015 65.415C106.405 65.415 105.1 64.505 105.1 63.385C105.094 63.3118 105.094 63.2382 105.1 63.165C105.005 63.1204 104.92 63.0556 104.852 62.9752C104.784 62.8948 104.734 62.8006 104.706 62.6992C104.678 62.5977 104.673 62.4914 104.689 62.3875C104.706 62.2835 104.746 62.1845 104.804 62.0972C104.863 62.0099 104.94 61.9364 105.03 61.8817C105.12 61.8269 105.221 61.7924 105.325 61.7803C105.43 61.7682 105.536 61.7789 105.636 61.8116C105.736 61.8444 105.828 61.8984 105.905 61.97C106.481 61.5793 107.159 61.3655 107.855 61.355L108.225 59.62C108.229 59.5999 108.237 59.5809 108.249 59.5639C108.26 59.547 108.275 59.5325 108.292 59.5214C108.31 59.5102 108.329 59.5026 108.349 59.4989C108.369 59.4952 108.39 59.4956 108.41 59.5L109.635 59.745C109.695 59.6422 109.789 59.5641 109.902 59.5247C110.014 59.4854 110.136 59.4873 110.247 59.5301C110.358 59.5729 110.45 59.6539 110.507 59.7585C110.563 59.8631 110.581 59.9844 110.556 60.1007C110.531 60.217 110.466 60.3207 110.372 60.3931C110.277 60.4655 110.16 60.502 110.041 60.4959C109.923 60.4897 109.81 60.4415 109.724 60.3598C109.637 60.2781 109.583 60.1682 109.57 60.05L108.5 59.825L108.175 61.385C108.863 61.3997 109.531 61.6134 110.1 62C110.176 61.927 110.267 61.8713 110.366 61.8367C110.466 61.8022 110.572 61.7896 110.676 61.7998C110.781 61.81 110.883 61.8428 110.974 61.8959C111.065 61.949 111.143 62.0212 111.203 62.1075ZM106.419 62.7221C106.383 62.7767 106.357 62.838 106.344 62.9024C106.332 62.9668 106.332 63.0331 106.344 63.0975C106.37 63.2276 106.447 63.3421 106.557 63.4158C106.667 63.4895 106.802 63.5164 106.933 63.4906C106.997 63.4777 107.058 63.4524 107.113 63.4159C107.167 63.3794 107.214 63.3325 107.251 63.2779C107.325 63.1676 107.351 63.0326 107.326 62.9025C107.3 62.7724 107.223 62.6579 107.113 62.5842C107.003 62.5105 106.868 62.4836 106.737 62.5094C106.607 62.5353 106.493 62.6118 106.419 62.7221ZM108.005 64.76C108.449 64.7783 108.885 64.6625 109.24 64.395C109.267 64.3691 109.282 64.3338 109.282 64.2968C109.283 64.2597 109.268 64.224 109.242 64.1975C109.23 64.1844 109.214 64.1739 109.198 64.1667C109.181 64.1594 109.163 64.1556 109.144 64.1553C109.107 64.1549 109.072 64.1691 109.045 64.195C108.742 64.4127 108.373 64.5203 108 64.5C107.628 64.5166 107.261 64.4055 106.96 64.185C106.934 64.1637 106.901 64.1529 106.868 64.1545C106.834 64.1562 106.803 64.1702 106.779 64.1939C106.755 64.2176 106.741 64.2493 106.74 64.2827C106.738 64.3162 106.749 64.3491 106.77 64.375C107.125 64.6423 107.561 64.7784 108.005 64.76ZM108.872 63.4358C108.955 63.4908 109.046 63.54 109.145 63.54C109.213 63.5408 109.28 63.5278 109.343 63.5017C109.405 63.4757 109.462 63.4372 109.509 63.3885C109.556 63.3399 109.593 63.2821 109.618 63.2187C109.642 63.1554 109.653 63.0878 109.65 63.02C109.65 62.9336 109.628 62.8487 109.585 62.7736C109.542 62.6985 109.481 62.6357 109.407 62.5913C109.333 62.5469 109.249 62.5224 109.162 62.5203C109.076 62.5182 108.99 62.5385 108.914 62.5792C108.838 62.6199 108.774 62.6797 108.728 62.7527C108.681 62.8256 108.655 62.9093 108.651 62.9956C108.646 63.0818 108.665 63.1677 108.703 63.2449C108.742 63.322 108.8 63.3878 108.872 63.4358Z" fill="white"/>
<circle cx="61" cy="62" r="14" fill="#1B1B1B"/>
<path d="M65.7906 60.5465C65.734 60.3445 65.6237 60.1617 65.4715 60.0174C65.315 59.8687 65.1231 59.7623 64.9141 59.7083C64.1317 59.5021 60.9971 59.5021 60.9971 59.5021C59.6903 59.4872 58.3839 59.5526 57.0851 59.6979C56.8761 59.7559 56.6846 59.8646 56.5277 60.0145C56.3735 60.1628 56.2619 60.3457 56.2036 60.5461C56.0635 61.3009 55.9954 62.0673 56.0003 62.835C55.9953 63.6019 56.0632 64.3681 56.2036 65.1238C56.2606 65.3234 56.3719 65.5054 56.5264 65.6525C56.681 65.7996 56.8735 65.9058 57.0851 65.962C57.8779 66.1678 60.9971 66.1678 60.9971 66.1678C62.3055 66.1827 63.6136 66.1173 64.9141 65.972C65.1231 65.918 65.315 65.8116 65.4715 65.6629C65.6237 65.5186 65.7338 65.3358 65.7902 65.1338C65.934 64.3793 66.0039 63.6126 65.9989 62.8445C66.0097 62.0732 65.9399 61.3029 65.7906 60.5461V60.5465ZM60.0006 64.2614V61.4089L62.6085 62.8354L60.0006 64.2614Z" fill="white"/>
<circle cx="14" cy="14" r="14" fill="#1B1B1B"/>
<path d="M14.2482 19.1386V14.7491H15.729L15.9491 13.0305H14.2482V11.9358C14.2482 11.4399 14.3864 11.1003 15.0981 11.1003H16V9.56811C15.5612 9.52108 15.1201 9.49837 14.6788 9.50009C13.3699 9.50009 12.4712 10.2991 12.4712 11.7661V13.0273H11V14.7459H12.4744V19.1386H14.2482Z" fill="white"/>
</svg>
