<svg width="158" height="131" viewBox="0 0 158 131" fill="none" xmlns="http://www.w3.org/2000/svg">
<path d="M132.353 15.8089C131.91 15.8083 131.479 15.9549 131.128 16.2255C130.976 15.7864 130.73 15.3861 130.406 15.0529C130.082 14.7196 129.689 14.4617 129.254 14.2972C128.82 14.1328 128.355 14.0659 127.891 14.1013C127.428 14.1368 126.978 14.2736 126.574 14.5022C126.433 13.0334 125.772 11.6632 124.71 10.6382C123.649 9.61329 122.256 9.00085 120.783 8.91113C119.311 8.82141 117.854 9.26031 116.676 10.1488C115.498 11.0374 114.676 12.3172 114.357 13.758C113.847 13.2525 113.212 12.8923 112.516 12.7147C111.821 12.5371 111.09 12.5486 110.4 12.7479C109.711 12.9472 109.087 13.3271 108.593 13.8483C108.099 14.3696 107.754 15.0133 107.592 15.7128C107.368 15.4116 107.077 15.1668 106.742 14.998C106.407 14.8293 106.037 14.7411 105.662 14.7407C105.247 14.74 104.84 14.8481 104.48 15.0541C104.366 13.9459 103.863 12.9141 103.059 12.1427C102.255 11.3714 101.203 10.9106 100.091 10.8426C98.9794 10.7746 97.8795 11.1038 96.9877 11.7715C96.0959 12.4391 95.4703 13.4018 95.2223 14.4879C94.7928 14.0645 94.2477 13.7776 93.6555 13.6632C93.0633 13.5488 92.4506 13.612 91.8942 13.8449C91.3379 14.0778 90.8628 14.4699 90.5287 14.9721C90.1947 15.4742 90.0165 16.0639 90.0167 16.667C90.0167 16.7062 90.0167 16.7418 90.0167 16.781H134.073C133.894 16.4847 133.641 16.2396 133.34 16.0693C133.039 15.899 132.699 15.8093 132.353 15.8089Z" fill="white"/>
<path d="M91.1276 85.5622C90.6857 85.5624 90.2562 85.7089 89.9063 85.9788C89.7545 85.5397 89.508 85.1394 89.1842 84.8061C88.8605 84.4729 88.4674 84.2149 88.0329 84.0505C87.5984 83.8861 87.133 83.8192 86.6698 83.8546C86.2065 83.89 85.7567 84.0269 85.3522 84.2554C85.216 82.7813 84.5566 81.4046 83.4935 80.3743C82.4304 79.3441 81.0336 78.7283 79.556 78.6384C78.0783 78.5485 76.6172 78.9904 75.437 79.8841C74.2568 80.7779 73.4354 82.0645 73.1214 83.5113C72.6121 83.0082 71.9778 82.6501 71.284 82.4739C70.5901 82.2977 69.8618 82.3099 69.1742 82.5091C68.4866 82.7083 67.8646 83.0873 67.3724 83.6071C66.8801 84.1269 66.5355 84.7686 66.374 85.4661C66.0252 84.9953 65.5164 84.6682 64.9433 84.5462C64.3702 84.4243 63.7723 84.5159 63.262 84.8038C63.1627 83.6825 62.6642 82.634 61.8572 81.8492C61.0502 81.0643 59.9884 80.5952 58.8647 80.527C57.7411 80.4589 56.6303 80.7964 55.7344 81.478C54.8385 82.1596 54.217 83.1401 53.983 84.2412C53.5539 83.8173 53.009 83.5299 52.4168 83.4152C51.8247 83.3005 51.2118 83.3637 50.6555 83.5967C50.0992 83.8297 49.6244 84.2222 49.2907 84.7247C48.9571 85.2272 48.7797 85.8172 48.7809 86.4203C48.7809 86.4595 48.7809 86.4951 48.7809 86.5342H92.851C92.671 86.2382 92.418 85.9933 92.1163 85.8231C91.8145 85.6529 91.4741 85.563 91.1276 85.5622Z" fill="white"/>
<path d="M93.2461 60.7516C92.3743 60.751 91.5267 61.0389 90.8356 61.5706C90.5368 60.706 90.0516 59.9177 89.4143 59.2616C88.7769 58.6054 88.0031 58.0975 87.1476 57.7737C86.2921 57.4499 85.3759 57.3182 84.4638 57.388C83.5518 57.4577 82.6662 57.7272 81.8699 58.1773C81.6068 55.2703 80.3103 52.5539 78.2157 50.521C76.1212 48.4881 73.3673 47.2734 70.4537 47.0972C67.5402 46.921 64.66 47.7951 62.3358 49.5608C60.0115 51.3265 58.3972 53.8669 57.7857 56.721C56.7817 55.7312 55.5321 55.0269 54.1654 54.6805C52.7988 54.3341 51.3645 54.3582 50.0103 54.7502C48.6561 55.1423 47.4308 55.8882 46.4606 56.9111C45.4903 57.934 44.8102 59.197 44.4903 60.57C43.8034 59.644 42.8019 59.0008 41.674 58.7615C40.5462 58.5221 39.3697 58.7031 38.366 59.2704C38.1704 57.0632 37.1897 54.9994 35.6021 53.4538C34.0144 51.9082 31.925 50.9833 29.7134 50.8472C27.5018 50.711 25.3147 51.3726 23.5494 52.7117C21.784 54.0508 20.5576 55.9787 20.0927 58.1452C19.2471 57.3118 18.1739 56.747 17.0082 56.5218C15.8424 56.2966 14.6361 56.4211 13.5409 56.8797C12.4457 57.3382 11.5105 58.1103 10.8529 59.0989C10.1954 60.0875 9.84477 61.2485 9.84521 62.4358C9.84521 62.5106 9.84521 62.5853 9.84521 62.6601H96.6359C96.2829 62.0772 95.7854 61.5952 95.1916 61.2609C94.5977 60.9265 93.9276 60.7511 93.2461 60.7516Z" fill="white"/>
<path d="M72.0888 39.7618L50.9778 35.6813L35.5566 32.6619C35.3719 32.6263 35.1852 32.6013 34.9976 32.5871C34.1751 32.523 31.907 32.4162 30.6607 32.9824C29.119 33.6945 28.3712 34.7627 28.8092 35.4748C29.2472 36.1869 32.0957 37.7145 34.6629 38.5797C37.2301 39.4449 49.9737 42.1973 51.754 42.3397C53.5343 42.4822 55.7775 42.5818 55.7775 42.5818C55.7775 42.5818 63.3902 43.2726 66.2992 43.0091C69.2083 42.7456 73.4205 41.4389 73.6413 40.8727C73.862 40.3066 72.0888 39.7618 72.0888 39.7618Z" fill="white"/>
<path d="M64.0382 38.3767C64.0382 38.3767 66.3312 38.5583 67.3674 37.9814C68.4035 37.4046 72.4164 31.5438 72.6692 31.4797C73.3549 31.4714 74.0407 31.4988 74.7237 31.5616L71.9855 40.246L63.7213 38.4301L64.0382 38.3767Z" fill="white"/>
<path d="M69.7352 42.3792C69.7352 42.3792 70.3299 42.1798 70.6717 42.0409C71.0135 41.9021 71.7755 41.635 72.2028 41.4214C72.4673 41.285 72.6855 41.0731 72.8294 40.8125L83.312 39.6731L82.2438 39.5876L70.9708 40.3425C70.9636 41.4855 69.7352 42.3792 69.7352 42.3792Z" fill="#263238"/>
<path d="M88.0654 35.9272L81.3785 36.4862L81.6028 36.4043L61.1897 37.6541L48.3713 38.441C48.3713 38.441 46.8082 38.3983 47.3423 38.936L49.4395 39.5163C49.4395 39.5163 45.4872 39.4451 39.6727 37.9105C33.8582 36.3759 31.8963 36.0696 30.2477 35.0014C29.8254 34.7297 29.4894 34.3431 29.2792 33.887C28.7237 34.4389 28.535 35.0299 28.8092 35.4643C29.2186 36.1088 31.7147 37.4975 34.1501 38.3805L34.0398 38.352L30.4471 37.8998C30.4471 37.8998 29.5569 36.6749 29.5355 36.9206C29.5142 37.1663 29.0086 38.3627 29.3361 38.3912C29.6637 38.4197 33.6089 38.8113 33.6089 38.8113L33.5163 39.965C33.4036 39.9647 33.295 40.0072 33.2124 40.0838C33.1298 40.1605 33.0794 40.2656 33.0713 40.378C33.0614 40.4975 33.0994 40.6159 33.1768 40.7074C33.2543 40.7989 33.3649 40.8559 33.4843 40.8658C33.5874 40.8736 33.69 40.8462 33.7754 40.7879C33.8608 40.7297 33.9239 40.6442 33.9543 40.5454C34.0088 40.5676 34.0665 40.5808 34.1252 40.5845H34.1786C34.2064 40.9783 34.3664 41.3512 34.6327 41.6427C34.899 41.9342 35.2559 42.1272 35.6456 42.1904C36.7815 42.4468 40.0466 42.874 41.0756 42.3791C41.8198 42.023 41.5064 40.8409 41.275 40.2178C42.6565 40.5311 44.0986 40.8445 45.4623 41.1364L45.3875 42.0658L46.2706 42.3827L46.915 43.5897L46.3703 43.7784C46.3489 43.6443 46.2846 43.5208 46.187 43.4264C46.0894 43.332 45.9638 43.2718 45.829 43.255C45.6654 43.2739 45.5133 43.3489 45.3988 43.4673C45.2842 43.5857 45.2143 43.7402 45.2008 43.9044C45.1874 44.0686 45.2313 44.2323 45.3251 44.3678C45.4189 44.5033 45.5567 44.602 45.7151 44.6472C45.8236 44.653 45.9317 44.6296 46.0281 44.5795C46.1245 44.5294 46.2058 44.4545 46.2634 44.3624L47.0931 44.4265V44.4692C46.961 44.5136 46.8455 44.5968 46.7616 44.708C46.6778 44.8192 46.6295 44.9532 46.6231 45.0923C46.6105 45.1779 46.615 45.2652 46.6364 45.3491C46.6577 45.4329 46.6955 45.5117 46.7475 45.5809C46.7994 45.6501 46.8646 45.7083 46.9392 45.7522C47.0138 45.7961 47.0964 45.8247 47.1821 45.8365C47.3493 45.8405 47.5115 45.7798 47.6349 45.667C47.7584 45.5542 47.8334 45.398 47.8444 45.2312H47.9049C47.9476 45.329 48.0157 45.4135 48.1021 45.4761C48.1885 45.5387 48.2901 45.5771 48.3963 45.5872C48.5597 45.5678 48.7114 45.4923 48.8255 45.3737C48.9396 45.255 49.0091 45.1005 49.0221 44.9364C49.0351 44.7723 48.9909 44.6087 48.8969 44.4736C48.8029 44.3384 48.665 44.24 48.5067 44.195C48.3685 44.1891 48.2323 44.2292 48.1195 44.3091C48.0067 44.3891 47.9237 44.5043 47.8835 44.6365L47.5738 44.5297L47.499 43.3725L47.0076 42.3435L47.1429 41.4676C49.3826 41.9269 51.1914 42.2652 51.7718 42.3114C53.577 42.4574 55.7953 42.5536 55.7953 42.5536C55.7953 42.5536 56.5893 42.6248 57.7608 42.7138L57.7038 43.4473H57.0949C57.0588 43.3354 56.9912 43.2363 56.9003 43.1618C56.8094 43.0873 56.699 43.0406 56.5822 43.0271C56.4185 43.046 56.2665 43.121 56.1519 43.2394C56.0374 43.3578 55.9674 43.5123 55.954 43.6765C55.9406 43.8407 55.9845 44.0045 56.0782 44.1399C56.172 44.2754 56.3098 44.3741 56.4683 44.4193C56.5865 44.4257 56.7041 44.3974 56.8066 44.338C56.909 44.2785 56.9919 44.1905 57.0451 44.0846L57.6433 44.1843V44.2057C57.5416 44.264 57.4559 44.3466 57.3938 44.4459C57.3317 44.5453 57.2951 44.6585 57.2872 44.7754C57.2628 44.9486 57.3078 45.1244 57.4126 45.2645C57.5173 45.4046 57.6732 45.4976 57.8462 45.5231C57.9689 45.5286 58.0904 45.4977 58.1955 45.4344C58.3007 45.3711 58.3848 45.2781 58.4373 45.1671L58.9144 45.2063C58.9583 45.3039 59.0272 45.3882 59.1141 45.4507C59.201 45.5132 59.3028 45.5517 59.4093 45.5623C59.5512 45.5931 59.699 45.5799 59.8331 45.5243C59.9672 45.4688 60.0811 45.3736 60.1596 45.2516C60.2381 45.1295 60.2774 44.9863 60.2723 44.8413C60.2671 44.6963 60.2178 44.5563 60.1309 44.44C60.044 44.3238 59.9237 44.2369 59.786 44.1909C59.6484 44.145 59.4999 44.1422 59.3607 44.1829C59.2214 44.2237 59.0978 44.306 59.0066 44.4189C58.9154 44.5318 58.8609 44.6698 58.8503 44.8146L58.5156 44.8715L58.5655 42.7708C61.0401 42.9452 64.5331 43.1268 66.2956 42.9773C66.8048 42.931 67.3638 42.8527 67.9157 42.753C66.1827 42.7584 64.4507 42.6669 62.7279 42.4788C60.2817 42.1227 60.2354 41.7667 60.2354 41.7667C60.2354 41.7667 60.6449 41.7987 60.6734 41.4711C60.7019 41.1436 60.7375 40.6522 60.7375 40.6522C60.7375 40.6522 61.852 41.1542 62.1617 41.2611C62.4715 41.3679 61.7166 40.6486 61.7166 40.6486L65.053 40.1751L66.1496 40.9228L66.5662 40.8729L66.0357 40.2534L69.2225 39.7798H69.3329L70.4865 40.2712L70.9779 40.3104L70.5613 39.8012L70.4438 39.4451L73.3849 38.9609C73.3849 38.9609 74.478 39.7086 75.0655 39.5876C75.653 39.4665 75.0299 39.0107 75.0299 39.0107L76.1942 38.8968L77.1058 38.8469L77.1698 38.0244L78.4339 37.5615L89.3544 36.1978L90.6148 34.8982L88.0654 35.9272ZM35.6064 39.1496C35.6064 39.1496 34.4457 38.9894 34.1822 39.7834H34.1537C34.0983 39.7743 34.0418 39.7743 33.9863 39.7834L34.0576 38.8825L37.4936 39.3419L37.8105 39.4202L35.6064 39.1496Z" fill="#263238"/>
<path d="M58.1524 38.7292L55.4321 38.7576C55.4321 38.7576 55.7312 39.1137 55.8166 40.1107C55.9021 41.1077 56.4576 41.3961 57.2694 41.5349C58.0812 41.6738 59.2669 41.2821 59.2634 40.2923C59.2598 39.3024 58.9785 38.7113 58.1524 38.7292Z" fill="white"/>
<path d="M30.3723 33.2888L30.0554 33.9475L30.6679 34.0045L31.0204 33.3422L30.3723 33.2888Z" fill="#263238"/>
<path d="M33.1104 34.243L33.6054 34.2893L33.3383 33.5273L33.1318 33.5095L33.1104 34.243Z" fill="#263238"/>
<path d="M32.0209 33.4204L31.8678 34.1219L32.9075 34.2216L32.9288 33.4952L32.0209 33.4204Z" fill="#263238"/>
<path d="M31.818 33.4062L31.2411 33.3599L30.8851 34.0257L31.6648 34.104L31.818 33.4062Z" fill="#263238"/>
<path d="M30.1551 33.271H30.1088C29.8182 33.4413 29.5482 33.6444 29.3041 33.8763L29.8382 33.9297L30.1551 33.271Z" fill="#263238"/>
<path d="M152.435 56.3935C152.39 55.5104 152.326 54.6262 152.242 53.7408H145.253V47.8515H151.452C151.215 46.47 150.931 45.0956 150.601 43.7283H109.614V47.556H114.621L117.562 56.3935H123.455V102.044H128.14C131.534 99.7685 134.766 97.2594 137.811 94.5351C140.95 91.7596 143.658 88.5328 145.848 84.9605H137.889V76.1266H148.789V79.2208C149.414 77.7285 149.958 76.2035 150.419 74.6525H150.259V65.8185H152.182C152.234 65.3271 152.28 64.8358 152.321 64.3444H150.259V56.3935H152.435ZM128.169 47.8479H136.123V53.7372H128.169V47.8479ZM119.623 53.7372L117.434 47.8479H127.578V53.7372H119.623ZM136.433 84.9605H125.538V76.1266H136.433V84.9605ZM136.433 74.6525H125.538V65.8185H136.433V74.6525ZM136.433 64.3266H125.538V56.3935H136.433V64.3266ZM136.729 53.723V47.8515H144.683V53.7408L136.729 53.723ZM148.806 74.6347H137.889V65.8185H148.789L148.806 74.6347ZM148.806 64.3088H137.889V56.3935H148.789L148.806 64.3088Z" fill="#263238"/>
<path d="M146.83 101.044H4.75705V104.711H146.83V101.044Z" fill="#263238"/>
<path d="M115.974 103.045C115.927 103.045 115.881 103.026 115.848 102.993C115.814 102.959 115.796 102.914 115.796 102.867V0.177788C115.796 0.130571 115.814 0.0852876 115.848 0.0519001C115.881 0.0185126 115.927 -0.000244141 115.974 -0.000244141C116.021 -0.000244141 116.066 0.0185126 116.1 0.0519001C116.133 0.0852876 116.152 0.130571 116.152 0.177788V102.867C116.152 102.914 116.133 102.959 116.1 102.993C116.066 103.026 116.021 103.045 115.974 103.045Z" fill="#263238"/>
<path d="M56.1549 103.045C56.1077 103.045 56.0625 103.026 56.0291 102.993C55.9957 102.96 55.9769 102.914 55.9769 102.867V0.59478C55.9769 0.547563 55.9957 0.50228 56.0291 0.468892C56.0625 0.435505 56.1077 0.416748 56.1549 0.416748C56.2022 0.416748 56.2475 0.435505 56.2808 0.468892C56.3142 0.50228 56.333 0.547563 56.333 0.59478V102.867C56.333 102.914 56.3142 102.96 56.2808 102.993C56.2475 103.026 56.2022 103.045 56.1549 103.045Z" fill="#263238"/>
<path d="M157.822 65.1024H0.178032C0.130815 65.1024 0.0855318 65.0836 0.0521443 65.0503C0.0187568 65.0169 0 64.9716 0 64.9244C0 64.8772 0.0187568 64.8319 0.0521443 64.7985C0.0855318 64.7651 0.130815 64.7463 0.178032 64.7463H157.822C157.869 64.7463 157.914 64.7651 157.948 64.7985C157.981 64.8319 158 64.8772 158 64.9244C158 64.9716 157.981 65.0169 157.948 65.0503C157.914 65.0836 157.869 65.1024 157.822 65.1024Z" fill="#263238"/>
<path d="M151.943 23.9064H4.98849C4.94127 23.9064 4.89599 23.8876 4.8626 23.8542C4.82922 23.8208 4.81046 23.7755 4.81046 23.7283C4.81046 23.6811 4.82922 23.6358 4.8626 23.6024C4.89599 23.5691 4.94127 23.5503 4.98849 23.5503H151.943C151.991 23.5503 152.036 23.5691 152.069 23.6024C152.103 23.6358 152.121 23.6811 152.121 23.7283C152.121 23.7755 152.103 23.8208 152.069 23.8542C152.036 23.8876 151.991 23.9064 151.943 23.9064Z" fill="#263238"/>
<path d="M75.7598 46.3027C75.7408 46.3023 75.7224 46.2958 75.7073 46.2841C75.6922 46.2725 75.6813 46.2563 75.6761 46.2379C75.671 46.2196 75.6718 46.2001 75.6785 46.1823C75.6852 46.1645 75.6975 46.1493 75.7135 46.1389L77.2588 45.1847C77.2793 45.1725 77.3037 45.1687 77.3269 45.174C77.3501 45.1793 77.3703 45.1933 77.3835 45.2132C77.3948 45.2338 77.3982 45.2579 77.3929 45.2809C77.3877 45.3039 77.3742 45.3241 77.355 45.3378L75.8061 46.2885C75.7926 46.298 75.7764 46.303 75.7598 46.3027Z" fill="#263238"/>
<path d="M79.3881 44.0663C79.3688 44.0667 79.3499 44.0607 79.3342 44.0493C79.3186 44.0379 79.307 44.0218 79.3014 44.0033C79.2958 43.9847 79.2963 43.9649 79.303 43.9467C79.3096 43.9286 79.322 43.913 79.3383 43.9026L103.344 29.1081C103.365 29.0967 103.389 29.0934 103.412 29.0986C103.435 29.1039 103.455 29.1174 103.469 29.1366C103.481 29.1574 103.484 29.1821 103.478 29.2054C103.472 29.2286 103.457 29.2486 103.437 29.2612L79.4344 44.0557C79.42 44.0625 79.4042 44.0662 79.3881 44.0663Z" fill="#263238"/>
<path d="M87.3248 42.1226C87.3097 42.1224 87.295 42.1184 87.2819 42.1109C87.2688 42.1034 87.2578 42.0928 87.25 42.0799C87.238 42.06 87.2343 42.0362 87.2396 42.0136C87.2449 41.991 87.2589 41.9713 87.2785 41.9588L106.506 30.1055C106.516 30.099 106.527 30.0947 106.538 30.0926C106.55 30.0906 106.561 30.0909 106.573 30.0936C106.584 30.0962 106.595 30.1012 106.604 30.1081C106.613 30.1151 106.621 30.1239 106.627 30.1339C106.639 30.1544 106.643 30.1788 106.638 30.202C106.632 30.2252 106.618 30.2454 106.599 30.2586L87.3711 42.1084C87.3572 42.1173 87.3412 42.1223 87.3248 42.1226Z" fill="#263238"/>
<path d="M109.152 28.6773C109.136 28.6777 109.12 28.6739 109.107 28.6664C109.093 28.6589 109.081 28.6479 109.073 28.6345C109.062 28.6142 109.058 28.5901 109.064 28.5674C109.07 28.5448 109.085 28.5254 109.105 28.5135L114.913 24.9315C114.933 24.9195 114.956 24.9157 114.979 24.9211C115.002 24.9264 115.021 24.9403 115.034 24.96C115.046 24.9804 115.05 25.0048 115.044 25.028C115.039 25.0512 115.025 25.0715 115.005 25.0846L109.198 28.6452C109.187 28.6613 109.17 28.6727 109.152 28.6773Z" fill="#263238"/>
<path d="M12.7329 97.3409C12.7135 97.3413 12.6946 97.3353 12.679 97.3239C12.6633 97.3125 12.6518 97.2964 12.6462 97.2779C12.6405 97.2593 12.6411 97.2395 12.6477 97.2213C12.6544 97.2032 12.6668 97.1876 12.683 97.1771L14.2319 96.2229C14.2416 96.2165 14.2526 96.2121 14.264 96.2101C14.2755 96.208 14.2873 96.2083 14.2986 96.211C14.3099 96.2137 14.3206 96.2186 14.33 96.2256C14.3393 96.2325 14.3471 96.2413 14.353 96.2514C14.3594 96.2611 14.3638 96.272 14.3658 96.2835C14.3679 96.295 14.3675 96.3067 14.3649 96.3181C14.3622 96.3294 14.3572 96.3401 14.3503 96.3494C14.3434 96.3588 14.3346 96.3666 14.3245 96.3724L12.7792 97.3125C12.7676 97.3272 12.7512 97.3373 12.7329 97.3409Z" fill="#263238"/>
<path d="M16.3576 95.1045C16.3386 95.1041 16.3202 95.0976 16.3051 95.0859C16.29 95.0742 16.2791 95.058 16.2739 95.0397C16.2688 95.0214 16.2696 95.0019 16.2763 94.9841C16.2831 94.9662 16.2953 94.951 16.3113 94.9407L40.3172 80.1462C40.3269 80.1398 40.3378 80.1354 40.3493 80.1334C40.3608 80.1314 40.3725 80.1317 40.3839 80.1344C40.3952 80.137 40.4059 80.142 40.4152 80.1489C40.4246 80.1559 40.4324 80.1646 40.4383 80.1747C40.4504 80.1952 40.4543 80.2195 40.449 80.2427C40.4437 80.2659 40.4296 80.2862 40.4098 80.2993L16.4039 95.0938C16.3896 95.1011 16.3737 95.1047 16.3576 95.1045Z" fill="#263238"/>
<path d="M24.2979 93.1643C24.2828 93.164 24.268 93.16 24.255 93.1525C24.2419 93.1451 24.2309 93.1344 24.2231 93.1215C24.2167 93.1118 24.2123 93.1009 24.2103 93.0894C24.2082 93.0779 24.2085 93.0662 24.2112 93.0548C24.2139 93.0435 24.2188 93.0328 24.2258 93.0235C24.2327 93.0141 24.2415 93.0063 24.2516 93.0005L43.4791 81.1471C43.4995 81.1349 43.5239 81.1311 43.5471 81.1364C43.5703 81.1417 43.5905 81.1557 43.6037 81.1756C43.6157 81.1955 43.6194 81.2193 43.6141 81.2419C43.6088 81.2645 43.5948 81.2842 43.5752 81.2966L24.3477 93.15C24.3335 93.1609 24.3157 93.1659 24.2979 93.1643Z" fill="#263238"/>
<path d="M46.1211 79.7156C46.1061 79.7148 46.0916 79.7105 46.0786 79.7031C46.0656 79.6957 46.0546 79.6854 46.0463 79.6729C46.0341 79.6525 46.0303 79.6281 46.0356 79.6049C46.0409 79.5817 46.0549 79.5614 46.0748 79.5483L51.8822 75.9698C51.9026 75.9577 51.927 75.9538 51.9502 75.9591C51.9734 75.9644 51.9937 75.9785 52.0068 75.9983C52.0182 76.019 52.0215 76.0431 52.0163 76.0661C52.011 76.089 51.9975 76.1093 51.9783 76.1229L46.1674 79.7014C46.1533 79.7099 46.1374 79.7148 46.1211 79.7156Z" fill="#263238"/>
<path d="M100.663 98.569C100.644 98.5686 100.626 98.5621 100.61 98.5504C100.595 98.5388 100.584 98.5226 100.579 98.5043C100.574 98.4859 100.575 98.4664 100.582 98.4486C100.588 98.4308 100.601 98.4156 100.617 98.4053L102.166 97.451C102.185 97.439 102.209 97.4353 102.232 97.4406C102.254 97.4459 102.274 97.4599 102.287 97.4795C102.299 97.4999 102.303 97.5243 102.297 97.5475C102.292 97.5707 102.278 97.591 102.258 97.6041L100.709 98.5584C100.695 98.5656 100.679 98.5693 100.663 98.569Z" fill="#263238"/>
<path d="M104.291 96.3367C104.276 96.3364 104.261 96.3324 104.247 96.3249C104.233 96.3175 104.222 96.3069 104.213 96.2939C104.201 96.2731 104.198 96.2484 104.204 96.2251C104.21 96.2019 104.225 96.1819 104.245 96.1693L128.244 81.3784C128.254 81.3719 128.265 81.3675 128.277 81.3654C128.288 81.3633 128.3 81.3636 128.312 81.3663C128.324 81.3689 128.335 81.3739 128.344 81.3809C128.354 81.3878 128.362 81.3967 128.368 81.4069C128.38 81.427 128.383 81.4505 128.377 81.4729C128.372 81.4953 128.359 81.5149 128.34 81.5279L104.334 96.3224C104.321 96.3299 104.306 96.3347 104.291 96.3367Z" fill="#263238"/>
<path d="M112.221 94.3927C112.202 94.3923 112.183 94.3858 112.168 94.3741C112.153 94.3625 112.142 94.3463 112.137 94.3279C112.132 94.3096 112.133 94.2901 112.14 94.2723C112.146 94.2545 112.159 94.2393 112.175 94.2289L131.402 82.3756C131.422 82.3636 131.446 82.3598 131.468 82.3652C131.491 82.3705 131.511 82.3844 131.523 82.4041C131.53 82.414 131.534 82.4252 131.536 82.437C131.538 82.4487 131.538 82.4608 131.535 82.4724C131.533 82.484 131.528 82.495 131.521 82.5047C131.514 82.5143 131.505 82.5225 131.495 82.5287L112.267 94.382C112.253 94.3889 112.237 94.3926 112.221 94.3927Z" fill="#263238"/>
<path d="M134.055 80.9334C134.039 80.9338 134.024 80.9301 134.01 80.9226C133.996 80.9151 133.985 80.9041 133.976 80.8907C133.965 80.8703 133.962 80.8462 133.968 80.8236C133.974 80.8009 133.988 80.7815 134.008 80.7696L139.816 77.1876C139.836 77.1759 139.86 77.1727 139.883 77.1787C139.906 77.1847 139.925 77.1994 139.937 77.2197C139.943 77.2294 139.948 77.2403 139.95 77.2518C139.952 77.2632 139.951 77.275 139.949 77.2863C139.946 77.2977 139.941 77.3083 139.934 77.3177C139.927 77.327 139.918 77.3349 139.908 77.3407L134.101 80.9334C134.086 80.9381 134.07 80.9381 134.055 80.9334Z" fill="#263238"/>
<path d="M10.7923 102.08C11.8605 103.672 13.3631 105.744 14.1607 107.403C13.8545 106.306 13.5589 105.267 13.2883 104.337C12.8789 103.536 11.7857 101.51 10.5253 100.161C8.92298 98.4445 8.23578 97.3407 9.10102 97.2481C9.6992 97.1805 11.4475 99.5127 12.5442 101.827C12.3056 101.033 12.1169 100.431 12.0029 100.079C11.9531 99.9186 11.8997 99.7406 11.8498 99.5554C10.7157 97.9672 9.68225 96.3095 8.75563 94.5919C7.13554 91.5653 6.61925 88.7097 7.68744 89.9381C8.68086 91.0704 10.4113 96.7034 11.7857 99.3382C11.6718 98.8825 11.5614 98.3769 11.4617 97.8819C11.2694 97.3977 11.0131 96.9099 10.8671 96.4577C10.6428 95.7776 10.4469 95.0868 10.2867 94.3854C10.0256 93.2912 9.89293 92.1704 9.89148 91.0455C9.86516 89.726 10.2253 88.4277 10.9276 87.3104C11.1128 87.0291 12.2522 85.3307 12.6011 86.2066C12.6469 86.3505 12.6555 86.5036 12.6261 86.6517C12.4587 88.1008 11.9353 89.429 11.6113 90.839C11.1235 92.9469 11.4475 96.4862 11.6113 97.9923L11.8463 98.8682C11.6184 96.244 12.7542 93.1356 13.8082 92.5944C15.1114 91.9214 13.8331 94.5599 12.829 96.8672C12.3515 97.8756 12.1278 98.9855 12.1774 100.1C12.3804 100.859 12.6154 101.71 12.8611 102.571C12.9109 102.69 12.9572 102.809 12.9999 102.927C12.8946 102.368 12.854 101.798 12.8789 101.229C12.9786 99.7263 14.6841 96.7105 15.8164 97.1342C16.9487 97.5579 15.0295 99.1495 14.004 101.001C13.47 102.02 13.2636 103.179 13.413 104.32L13.445 104.523C13.5625 104.914 13.6764 105.292 13.8011 105.651C14.0681 106.492 14.3138 107.286 14.5524 108.058C14.2613 106.938 14.1329 105.782 14.1714 104.626C14.3138 102.418 15.5956 100.335 16.6852 100.05C17.7747 99.7655 15.7167 103.365 15.0295 105.391C14.6578 106.572 14.5953 107.829 14.8479 109.041C15.179 110.138 15.4924 111.213 15.8093 112.36C15.72 110.864 15.7521 109.364 15.9054 107.873C16.1155 105.416 17.5753 103.846 18.5795 103.91C19.5836 103.974 18.5367 105.37 17.084 108.35C16.3185 109.913 15.9736 111.648 16.0834 113.385C16.2152 113.869 16.3469 114.364 16.4858 114.88C16.6389 115.468 16.7671 116.109 16.8739 116.764C17.0199 116.18 17.23 115.34 17.4899 114.382C17.7825 113.331 17.9956 112.26 18.1272 111.177C18.2626 109.924 18.5937 108.364 19.8221 107.713C19.9063 107.657 20.0012 107.621 20.1007 107.605C20.2001 107.589 20.3018 107.594 20.3991 107.62C20.4964 107.646 20.5869 107.693 20.6649 107.757C20.7428 107.821 20.8063 107.9 20.8511 107.991C20.9651 108.258 20.9912 108.555 20.9259 108.838C20.7623 109.691 20.4807 110.516 20.0892 111.291C20.33 111.754 20.4408 112.273 20.4096 112.794C20.4096 112.99 20.4096 113.186 20.3776 113.378C20.4844 113.178 20.5877 112.997 20.6874 112.833C20.8615 112.538 21.0788 112.27 21.3318 112.039C21.2678 111.574 21.2357 111.105 21.2357 110.636C21.2357 110.027 21.9478 108.475 22.5923 109.625C22.8522 110.088 22.8024 110.989 22.8273 111.59C23.0053 111.754 23.0552 112.096 22.9092 112.63C23.0549 114.019 22.9816 115.423 22.692 116.789L22.9128 116.401C23.2241 114.803 23.4086 113.182 23.4647 111.555C23.5465 108.852 23.1086 106.634 23.8528 105.801C24.5969 104.968 24.9993 107.898 24.6895 111.092C24.5413 112.55 24.1527 113.973 23.5394 115.304C24.2516 114.008 24.9637 112.684 25.6509 111.409C26.2488 110.026 26.5216 108.524 26.4485 107.019C26.2348 104.661 26.0924 102.746 26.9719 101.411C27.8514 100.075 28.0401 100.948 27.6128 103.707C27.3137 105.605 26.9932 108.137 26.4413 109.896C26.9683 108.888 27.4561 107.93 27.8977 107.047C28.1469 106.182 28.7308 103.956 28.7273 102.108C28.7273 99.7584 28.9801 98.4872 29.6744 99.0035C30.1587 99.3596 29.8453 102.262 29.0691 104.701C29.4252 103.956 29.7065 103.387 29.8667 103.052C29.9379 102.899 30.0198 102.735 30.1088 102.564C30.3634 100.63 30.7392 98.7146 31.234 96.828C32.117 93.5095 33.6837 91.0669 33.6338 92.7012C33.5911 94.2038 31.0203 99.4949 30.2192 102.368C30.4435 101.955 30.707 101.51 30.974 101.079C31.1628 100.595 31.3087 100.065 31.5046 99.6551C31.8072 99.0035 32.1348 98.3626 32.4944 97.7431C33.0501 96.7645 33.7194 95.855 34.4884 95.0334C35.3693 94.0451 36.5226 93.339 37.8034 93.0038C38.1309 92.9255 40.1213 92.4591 39.7795 93.335C39.7171 93.4764 39.6189 93.5991 39.4947 93.6911C38.3837 94.6346 37.0948 95.2506 35.8949 96.0589C34.1145 97.2695 31.9212 100.075 31.0203 101.293L30.5895 102.094C32.2167 100.022 35.1685 98.5335 36.3079 98.8469C37.7321 99.2421 34.9833 100.3 32.676 101.297C31.6404 101.71 30.7204 102.369 29.9949 103.216C29.6388 103.91 29.2187 104.693 28.8092 105.491L28.6703 105.847C28.9734 105.361 29.3318 104.912 29.7385 104.508C30.8387 103.472 34.143 102.432 34.6771 103.518C35.2112 104.604 32.7294 104.455 30.7177 105.106C29.6307 105.486 28.6879 106.192 28.0187 107.129C27.9831 107.186 27.9439 107.243 27.9048 107.296C27.7232 107.652 27.5487 108.008 27.3885 108.364C27.0075 109.162 26.6479 109.91 26.2918 110.636C26.8454 109.62 27.5407 108.687 28.357 107.866C29.9699 106.349 32.3342 105.712 33.317 106.239C34.2997 106.766 30.326 107.994 28.4531 108.988C27.3755 109.597 26.472 110.472 25.8289 111.53C25.3197 112.555 24.8141 113.559 24.2658 114.613C25.2204 113.461 26.2684 112.389 27.3992 111.409C29.2258 109.757 31.3657 109.607 32.0529 110.341C32.7401 111.074 31.0275 111.377 27.9333 112.562C26.3031 113.187 24.8653 114.228 23.7637 115.582C23.5287 116.023 23.2902 116.476 23.0516 116.946C22.7632 117.48 22.4178 118.035 22.0475 118.587C22.5531 118.259 23.2973 117.782 24.1234 117.266C25.0521 116.701 25.9365 116.067 26.7689 115.368C27.7232 114.549 29.0299 113.631 30.3723 113.99C30.4719 114.007 30.5668 114.045 30.6506 114.101C30.7344 114.158 30.8053 114.231 30.8585 114.317C30.9117 114.403 30.946 114.499 30.9592 114.6C30.9724 114.7 30.9641 114.802 30.9349 114.898C30.835 115.173 30.6505 115.408 30.4079 115.571C29.1403 116.55 27.4383 117.024 25.9642 117.604C24.6116 118.135 23.226 118.578 21.8161 118.929C21.46 119.431 21.1039 119.926 20.7479 120.399L21.4066 120.421C22.1899 120.442 25.7257 118.84 27.5202 118.327C29.3148 117.814 30.9919 118.786 29.1118 119.798C27.2318 120.809 22.1152 120.585 22.1152 120.585L20.6375 120.538C20.2814 120.983 19.9539 121.404 19.6334 121.792H26.6407V123.732H25.2307L24.1056 130.647H14.7909L13.6658 123.732H12.2842V121.792H16.9131C16.949 120.951 16.9252 120.108 16.8419 119.271C16.5324 118.958 16.1897 118.68 15.82 118.441C13.7797 117.035 10.3223 116.917 9.41079 114.204C9.19003 113.549 9.44284 112.712 10.2226 112.748C10.7852 112.773 11.3834 113.267 11.7323 113.673C12.8967 115.019 13.7761 116.415 15.293 117.437C15.3606 117.483 16.3184 118.245 16.792 118.715C16.7422 118.274 16.6745 117.804 16.589 117.291C16.2227 116.641 15.8035 116.021 15.3357 115.439C14.0966 113.898 12.2095 112.993 10.8635 111.523C10.4541 111.074 9.91284 109.454 11.1662 109.856C11.7252 110.038 12.3839 110.882 12.8183 111.281C14.0539 112.381 15.3108 113.574 16.1262 115.037C16.0906 114.891 16.0585 114.749 16.0229 114.603C15.1571 113.213 14.1807 111.894 13.1032 110.661C11.3229 108.632 9.48913 107.303 9.46064 106.192C9.43216 105.082 11.7323 106.944 13.6836 109.49C14.5734 110.649 15.2641 111.949 15.7274 113.335C15.3713 111.893 14.9903 110.44 14.6129 109.045C14.3565 108.35 13.5981 106.552 12.1988 105.292C10.4185 103.718 8.9942 102.418 8.75563 100.837C8.51707 99.2563 9.2292 99.762 10.7923 102.08ZM20.6624 119.951C20.9259 119.595 21.2001 119.2 21.4814 118.772C21.66 118.047 21.7791 117.309 21.8374 116.565C21.8754 115.927 21.8456 115.287 21.7484 114.656C21.2766 115.244 20.7738 115.806 20.2423 116.34C20.2534 116.897 20.3214 117.45 20.4452 117.992C20.4559 118.071 20.6375 119.281 20.6624 119.951ZM19.1492 121.781C19.5052 121.4 19.9004 120.944 20.3242 120.396C20.3118 119.956 20.2509 119.519 20.1426 119.093C19.9729 118.418 19.728 117.765 19.4126 117.145C18.7575 117.772 18.2732 118.185 18.2732 118.185L17.1516 119.16C17.2406 120.129 17.2905 121.04 17.3225 121.781H19.1492ZM17.1516 118.986L17.6466 118.548C17.9314 118.299 18.4263 117.334 18.9711 116.219C18.7391 115.75 18.5334 115.269 18.3551 114.777C17.7676 115.867 17.2371 116.714 16.9309 117.173C17.0199 117.779 17.0911 118.391 17.1516 118.986Z" fill="#92E3A9"/>
<path opacity="0.4" d="M10.7923 102.08C11.8605 103.672 13.3631 105.744 14.1607 107.403C13.8545 106.306 13.5589 105.267 13.2883 104.337C12.8789 103.536 11.7857 101.51 10.5253 100.161C8.92298 98.4445 8.23578 97.3407 9.10102 97.2481C9.6992 97.1805 11.4475 99.5127 12.5442 101.827C12.3056 101.033 12.1169 100.431 12.0029 100.079C11.9531 99.9186 11.8997 99.7406 11.8498 99.5554C10.7157 97.9672 9.68225 96.3095 8.75563 94.5919C7.13554 91.5653 6.61925 88.7097 7.68744 89.9381C8.68086 91.0704 10.4113 96.7034 11.7857 99.3382C11.6718 98.8825 11.5614 98.3769 11.4617 97.8819C11.2694 97.3977 11.0131 96.9099 10.8671 96.4577C10.6428 95.7776 10.4469 95.0868 10.2867 94.3854C10.0256 93.2912 9.89293 92.1704 9.89148 91.0455C9.86516 89.726 10.2253 88.4277 10.9276 87.3104C11.1128 87.0291 12.2522 85.3307 12.6011 86.2066C12.6469 86.3505 12.6555 86.5036 12.6261 86.6517C12.4587 88.1008 11.9353 89.429 11.6113 90.839C11.1235 92.9469 11.4475 96.4862 11.6113 97.9923L11.8463 98.8682C11.6184 96.244 12.7542 93.1356 13.8082 92.5944C15.1114 91.9214 13.8331 94.5599 12.829 96.8672C12.3515 97.8756 12.1278 98.9855 12.1774 100.1C12.3804 100.859 12.6154 101.71 12.8611 102.571C12.9109 102.69 12.9572 102.809 12.9999 102.927C12.8946 102.368 12.854 101.798 12.8789 101.229C12.9786 99.7263 14.6841 96.7105 15.8164 97.1342C16.9487 97.5579 15.0295 99.1495 14.004 101.001C13.47 102.02 13.2636 103.179 13.413 104.32L13.445 104.523C13.5625 104.914 13.6764 105.292 13.8011 105.651C14.0681 106.492 14.3138 107.286 14.5524 108.058C14.2613 106.938 14.1329 105.782 14.1714 104.626C14.3138 102.418 15.5956 100.335 16.6852 100.05C17.7747 99.7655 15.7167 103.365 15.0295 105.391C14.6578 106.572 14.5953 107.829 14.8479 109.041C15.179 110.138 15.4924 111.213 15.8093 112.36C15.72 110.864 15.7521 109.364 15.9054 107.873C16.1155 105.416 17.5753 103.846 18.5795 103.91C19.5836 103.974 18.5367 105.37 17.084 108.35C16.3185 109.913 15.9736 111.648 16.0834 113.385C16.2152 113.869 16.3469 114.364 16.4858 114.88C16.6389 115.468 16.7671 116.109 16.8739 116.764C17.0199 116.18 17.23 115.34 17.4899 114.382C17.7825 113.331 17.9956 112.26 18.1272 111.177C18.2626 109.924 18.5937 108.364 19.8221 107.713C19.9063 107.657 20.0012 107.621 20.1007 107.605C20.2001 107.589 20.3018 107.594 20.3991 107.62C20.4964 107.646 20.5869 107.693 20.6649 107.757C20.7428 107.821 20.8063 107.9 20.8511 107.991C20.9651 108.258 20.9912 108.555 20.9259 108.838C20.7623 109.691 20.4807 110.516 20.0892 111.291C20.33 111.754 20.4408 112.273 20.4096 112.794C20.4096 112.99 20.4096 113.186 20.3776 113.378C20.4844 113.178 20.5877 112.997 20.6874 112.833C20.8615 112.538 21.0788 112.27 21.3318 112.039C21.2678 111.574 21.2357 111.105 21.2357 110.636C21.2357 110.027 21.9478 108.475 22.5923 109.625C22.8522 110.088 22.8024 110.989 22.8273 111.59C23.0053 111.754 23.0552 112.096 22.9092 112.63C23.0549 114.019 22.9816 115.423 22.692 116.789L22.9128 116.401C23.2241 114.803 23.4086 113.182 23.4647 111.555C23.5465 108.852 23.1086 106.634 23.8528 105.801C24.5969 104.968 24.9993 107.898 24.6895 111.092C24.5413 112.55 24.1527 113.973 23.5394 115.304C24.2516 114.008 24.9637 112.684 25.6509 111.409C26.2488 110.026 26.5216 108.524 26.4485 107.019C26.2348 104.661 26.0924 102.746 26.9719 101.411C27.8514 100.075 28.0401 100.948 27.6128 103.707C27.3137 105.605 26.9932 108.137 26.4413 109.896C26.9683 108.888 27.4561 107.93 27.8977 107.047C28.1469 106.182 28.7308 103.956 28.7273 102.108C28.7273 99.7584 28.9801 98.4872 29.6744 99.0035C30.1587 99.3596 29.8453 102.262 29.0691 104.701C29.4252 103.956 29.7065 103.387 29.8667 103.052C29.9379 102.899 30.0198 102.735 30.1088 102.564C30.3634 100.63 30.7392 98.7146 31.234 96.828C32.117 93.5095 33.6837 91.0669 33.6338 92.7012C33.5911 94.2038 31.0203 99.4949 30.2192 102.368C30.4435 101.955 30.707 101.51 30.974 101.079C31.1628 100.595 31.3087 100.065 31.5046 99.6551C31.8072 99.0035 32.1348 98.3626 32.4944 97.7431C33.0501 96.7645 33.7194 95.855 34.4884 95.0334C35.3693 94.0451 36.5226 93.339 37.8034 93.0038C38.1309 92.9255 40.1213 92.4591 39.7795 93.335C39.7171 93.4764 39.6189 93.5991 39.4947 93.6911C38.3837 94.6346 37.0948 95.2506 35.8949 96.0589C34.1145 97.2695 31.9212 100.075 31.0203 101.293L30.5895 102.094C32.2167 100.022 35.1685 98.5335 36.3079 98.8469C37.7321 99.2421 34.9833 100.3 32.676 101.297C31.6404 101.71 30.7204 102.369 29.9949 103.216C29.6388 103.91 29.2187 104.693 28.8092 105.491L28.6703 105.847C28.9734 105.361 29.3318 104.912 29.7385 104.508C30.8387 103.472 34.143 102.432 34.6771 103.518C35.2112 104.604 32.7294 104.455 30.7177 105.106C29.6307 105.486 28.6879 106.192 28.0187 107.129C27.9831 107.186 27.9439 107.243 27.9048 107.296C27.7232 107.652 27.5487 108.008 27.3885 108.364C27.0075 109.162 26.6479 109.91 26.2918 110.636C26.8454 109.62 27.5407 108.687 28.357 107.866C29.9699 106.349 32.3342 105.712 33.317 106.239C34.2997 106.766 30.326 107.994 28.4531 108.988C27.3755 109.597 26.472 110.472 25.8289 111.53C25.3197 112.555 24.8141 113.559 24.2658 114.613C25.2204 113.461 26.2684 112.389 27.3992 111.409C29.2258 109.757 31.3657 109.607 32.0529 110.341C32.7401 111.074 31.0275 111.377 27.9333 112.562C26.3031 113.187 24.8653 114.228 23.7637 115.582C23.5287 116.023 23.2902 116.476 23.0516 116.946C22.7632 117.48 22.4178 118.035 22.0475 118.587C22.5531 118.259 23.2973 117.782 24.1234 117.266C25.0521 116.701 25.9365 116.067 26.7689 115.368C27.7232 114.549 29.0299 113.631 30.3723 113.99C30.4719 114.007 30.5668 114.045 30.6506 114.101C30.7344 114.158 30.8053 114.231 30.8585 114.317C30.9117 114.403 30.946 114.499 30.9592 114.6C30.9724 114.7 30.9641 114.802 30.9349 114.898C30.835 115.173 30.6505 115.408 30.4079 115.571C29.1403 116.55 27.4383 117.024 25.9642 117.604C24.6116 118.135 23.226 118.578 21.8161 118.929C21.46 119.431 21.1039 119.926 20.7479 120.399L21.4066 120.421C22.1899 120.442 25.7257 118.84 27.5202 118.327C29.3148 117.814 30.9919 118.786 29.1118 119.798C27.2318 120.809 22.1152 120.585 22.1152 120.585L20.6375 120.538C20.2814 120.983 19.9539 121.404 19.6334 121.792H26.6407V123.732H25.2307L24.1056 130.647H14.7909L13.6658 123.732H12.2842V121.792H16.9131C16.949 120.951 16.9252 120.108 16.8419 119.271C16.5324 118.958 16.1897 118.68 15.82 118.441C13.7797 117.035 10.3223 116.917 9.41079 114.204C9.19003 113.549 9.44284 112.712 10.2226 112.748C10.7852 112.773 11.3834 113.267 11.7323 113.673C12.8967 115.019 13.7761 116.415 15.293 117.437C15.3606 117.483 16.3184 118.245 16.792 118.715C16.7422 118.274 16.6745 117.804 16.589 117.291C16.2227 116.641 15.8035 116.021 15.3357 115.439C14.0966 113.898 12.2095 112.993 10.8635 111.523C10.4541 111.074 9.91284 109.454 11.1662 109.856C11.7252 110.038 12.3839 110.882 12.8183 111.281C14.0539 112.381 15.3108 113.574 16.1262 115.037C16.0906 114.891 16.0585 114.749 16.0229 114.603C15.1571 113.213 14.1807 111.894 13.1032 110.661C11.3229 108.632 9.48913 107.303 9.46064 106.192C9.43216 105.082 11.7323 106.944 13.6836 109.49C14.5734 110.649 15.2641 111.949 15.7274 113.335C15.3713 111.893 14.9903 110.44 14.6129 109.045C14.3565 108.35 13.5981 106.552 12.1988 105.292C10.4185 103.718 8.9942 102.418 8.75563 100.837C8.51707 99.2563 9.2292 99.762 10.7923 102.08ZM20.6624 119.951C20.9259 119.595 21.2001 119.2 21.4814 118.772C21.66 118.047 21.7791 117.309 21.8374 116.565C21.8754 115.927 21.8456 115.287 21.7484 114.656C21.2766 115.244 20.7738 115.806 20.2423 116.34C20.2534 116.897 20.3214 117.45 20.4452 117.992C20.4559 118.071 20.6375 119.281 20.6624 119.951ZM19.1492 121.781C19.5052 121.4 19.9004 120.944 20.3242 120.396C20.3118 119.956 20.2509 119.519 20.1426 119.093C19.9729 118.418 19.728 117.765 19.4126 117.145C18.7575 117.772 18.2732 118.185 18.2732 118.185L17.1516 119.16C17.2406 120.129 17.2905 121.04 17.3225 121.781H19.1492ZM17.1516 118.986L17.6466 118.548C17.9314 118.299 18.4263 117.334 18.9711 116.219C18.7391 115.75 18.5334 115.269 18.3551 114.777C17.7676 115.867 17.2371 116.714 16.9309 117.173C17.0199 117.779 17.0911 118.391 17.1516 118.986Z" fill="white"/>
<path d="M152.748 130.814H149.543C149.496 130.814 149.451 130.796 149.418 130.762C149.384 130.729 149.365 130.684 149.365 130.636C149.365 130.589 149.384 130.544 149.418 130.51C149.451 130.477 149.496 130.458 149.543 130.458H152.748C152.795 130.458 152.841 130.477 152.874 130.51C152.907 130.544 152.926 130.589 152.926 130.636C152.926 130.684 152.907 130.729 152.874 130.762C152.841 130.796 152.795 130.814 152.748 130.814Z" fill="#263238"/>
<path d="M145.801 130.814H61.6348C61.5875 130.814 61.5423 130.796 61.5089 130.762C61.4755 130.729 61.4567 130.684 61.4567 130.636C61.4567 130.589 61.4755 130.544 61.5089 130.51C61.5423 130.477 61.5875 130.458 61.6348 130.458H145.801C145.848 130.458 145.894 130.477 145.927 130.51C145.961 130.544 145.979 130.589 145.979 130.636C145.979 130.684 145.961 130.729 145.927 130.762C145.894 130.796 145.848 130.814 145.801 130.814Z" fill="#263238"/>
<path d="M59.4948 130.815H2.04741C2.00019 130.815 1.95491 130.796 1.92152 130.762C1.88813 130.729 1.86938 130.684 1.86938 130.637C1.86938 130.589 1.88813 130.544 1.92152 130.511C1.95491 130.477 2.00019 130.458 2.04741 130.458H59.4948C59.542 130.458 59.5873 130.477 59.6207 130.511C59.6541 130.544 59.6729 130.589 59.6729 130.637C59.6729 130.684 59.6541 130.729 59.6207 130.762C59.5873 130.796 59.542 130.815 59.4948 130.815Z" fill="#263238"/>
<path d="M87.6168 88.4104C87.6168 88.4104 85.954 103.365 85.6371 107.463C85.3202 111.562 83.8211 121.706 83.8211 123.355C83.8211 125.003 83.9778 127.072 83.9778 127.072L82.08 127.229C82.08 127.229 81.0545 120.271 81.0545 117.259C81.0545 114.246 80.0255 108.482 80.1038 106.427C80.1822 104.373 80.7376 101.289 80.7376 99.4698C80.7376 97.6503 78.9181 93.1461 79.0784 86.9007C79.2386 80.6553 87.6168 88.4104 87.6168 88.4104Z" fill="#263238"/>
<path d="M82.08 127.414C82.0379 127.414 81.9973 127.398 81.9654 127.371C81.9335 127.344 81.9122 127.306 81.9055 127.264C81.9055 127.193 80.8765 120.257 80.8765 117.277C80.8027 115.3 80.628 113.329 80.3531 111.37C80.1145 109.358 79.8866 107.453 79.9258 106.438C79.965 105.423 80.1074 104.27 80.2427 103.109C80.4112 101.908 80.5169 100.7 80.5596 99.4878C80.4827 98.577 80.3242 97.6749 80.086 96.7924C79.5697 94.5136 78.7935 91.0669 78.9003 86.9116C78.9324 85.5977 79.3312 84.7752 80.0825 84.4512C82.461 83.4435 87.5206 88.0902 87.7378 88.2896C87.7579 88.3085 87.7733 88.3319 87.7825 88.3579C87.7918 88.3839 87.7948 88.4117 87.7913 88.4391C87.7913 88.5887 86.1284 103.426 85.8151 107.485C85.6584 109.536 85.1991 113.139 84.7932 116.319C84.3873 119.499 83.9992 122.539 83.9992 123.362C83.9992 124.996 84.1558 127.044 84.1558 127.065C84.1578 127.088 84.1551 127.112 84.1479 127.134C84.1407 127.157 84.1292 127.177 84.1139 127.195C84.0987 127.213 84.0801 127.228 84.0592 127.238C84.0383 127.249 84.0155 127.255 83.992 127.257L82.0942 127.414H82.08ZM80.8872 84.6577C80.6652 84.6545 80.4449 84.6957 80.2391 84.7788C79.6267 85.0351 79.3027 85.758 79.2742 86.9152C79.1674 91.0241 79.94 94.4459 80.4492 96.7069C80.6961 97.6145 80.8582 98.5431 80.9335 99.4807C80.8895 100.707 80.7838 101.929 80.6166 103.145C80.4777 104.298 80.3353 105.495 80.2997 106.445C80.2641 107.396 80.4884 109.322 80.7269 111.32C81.0004 113.295 81.1727 115.284 81.2432 117.277C81.2432 119.976 82.0871 125.972 82.2438 127.047L83.7998 126.915C83.7606 126.381 83.6538 124.729 83.6538 123.355C83.6538 122.511 84.0099 119.616 84.4514 116.266C84.8537 113.093 85.313 109.5 85.4733 107.453C85.7724 103.536 87.2999 89.7388 87.4387 88.4819C86.8797 87.9976 83.0912 84.6577 80.8872 84.6577Z" fill="#263238"/>
<path d="M83.9778 127.079C83.9778 127.079 85.8756 128.582 86.6661 129.055C87.4565 129.529 88.8808 129.846 88.8808 130.163C88.8808 130.48 88.247 130.636 88.247 130.636H81.5993C81.5985 130.001 81.6509 129.366 81.756 128.739C81.9162 128.026 82.0728 127.236 82.0728 127.236L83.9778 127.079Z" fill="#92E3A9"/>
<path d="M88.247 130.815H81.5993C81.5521 130.815 81.5068 130.796 81.4734 130.762C81.44 130.729 81.4213 130.684 81.4213 130.637C81.4206 129.987 81.4754 129.339 81.5851 128.7C81.7417 127.987 81.8984 127.204 81.8984 127.204C81.9064 127.166 81.9261 127.131 81.9549 127.105C81.9837 127.079 82.02 127.063 82.0586 127.058L83.9564 126.901C84.0015 126.898 84.0462 126.912 84.0811 126.941C84.0989 126.941 85.9789 128.44 86.7516 128.903C87.1235 129.104 87.5104 129.277 87.9088 129.419C88.596 129.682 89.0517 129.857 89.0517 130.163C89.0517 130.597 88.4108 130.779 88.2826 130.811L88.247 130.815ZM81.788 130.459H88.2257C88.4535 130.398 88.7028 130.259 88.7028 130.163C88.4148 129.99 88.1077 129.852 87.7877 129.75C87.369 129.603 86.9629 129.422 86.5735 129.209C85.8614 128.774 84.2484 127.517 83.9244 127.261L82.2295 127.403C82.1761 127.656 82.0586 128.24 81.9376 128.778C81.8421 129.333 81.792 129.895 81.788 130.459Z" fill="#263238"/>
<path d="M83.8211 128.422L83.9778 127.079L82.08 127.236C82.08 127.236 81.966 127.813 81.8343 128.422H83.8211Z" fill="white"/>
<path d="M83.8211 128.6H81.8343C81.8078 128.6 81.7816 128.594 81.7576 128.583C81.7336 128.572 81.7124 128.556 81.6954 128.535C81.6785 128.515 81.6664 128.491 81.6603 128.465C81.6541 128.439 81.6539 128.412 81.6598 128.386C81.7916 127.777 81.9055 127.204 81.9055 127.204C81.9135 127.166 81.9333 127.131 81.962 127.105C81.9908 127.079 82.0271 127.062 82.0657 127.058L83.9636 126.901C83.9898 126.899 84.0162 126.902 84.0409 126.911C84.0656 126.921 84.0878 126.935 84.106 126.955C84.1249 126.973 84.1393 126.996 84.1479 127.022C84.1566 127.047 84.1593 127.074 84.1558 127.101L83.9956 128.443C83.9904 128.486 83.9699 128.525 83.9378 128.554C83.9057 128.583 83.8642 128.599 83.8211 128.6ZM82.0408 128.243H83.6467L83.7606 127.275L82.2153 127.403C82.1939 127.578 82.1298 127.891 82.055 128.243H82.0408Z" fill="#263238"/>
<path d="M79.7086 119.965C79.7086 119.965 77.4155 119.175 77.0986 119.727C76.7817 120.278 77.3372 125.498 77.5757 126.923C77.8143 128.347 78.4445 129.924 78.8398 129.771C79.235 129.618 79.4736 124.786 79.7869 124.074C80.1002 123.362 81.1328 121.624 81.1328 121.624L79.7086 119.965Z" fill="#92E3A9"/>
<path d="M78.7828 129.956C78.7161 129.957 78.6507 129.938 78.5941 129.903C78.1134 129.632 77.6007 128.162 77.3977 126.951C77.2339 125.965 76.5681 120.3 76.9455 119.638C77.3229 118.975 79.1958 119.598 79.7655 119.794C79.7962 119.804 79.8233 119.823 79.8439 119.848L81.2681 121.507C81.2923 121.535 81.307 121.57 81.3102 121.607C81.3134 121.644 81.3049 121.681 81.2859 121.713C81.2859 121.731 80.2605 123.455 79.9507 124.149C79.7585 124.985 79.6311 125.835 79.5697 126.691C79.3026 129.102 79.1816 129.821 78.9074 129.931C78.8679 129.948 78.8256 129.956 78.7828 129.956ZM77.6434 119.705C77.4404 119.705 77.2873 119.741 77.2553 119.816C76.9882 120.282 77.4796 125.263 77.7502 126.891C77.9923 128.347 78.5407 129.483 78.7614 129.593C78.9216 129.298 79.0997 127.713 79.2172 126.652C79.356 125.413 79.4736 124.341 79.6267 124.003C79.9008 123.387 80.6948 122.041 80.9156 121.642L79.6053 120.1C78.9725 119.879 78.3124 119.746 77.6434 119.705Z" fill="#263238"/>
<path d="M78.8648 119.716C78.9502 120.695 79.2208 122.176 79.2208 122.176L80.8338 122.112L81.1186 121.625L79.6944 119.965C79.6944 119.965 79.3312 119.834 78.8648 119.716Z" fill="white"/>
<path d="M79.235 122.354C79.1938 122.355 79.1537 122.341 79.1218 122.315C79.0898 122.289 79.0681 122.252 79.0606 122.212C79.0606 122.212 78.7722 120.709 78.6867 119.719C78.6847 119.69 78.6895 119.662 78.7006 119.635C78.7118 119.608 78.7289 119.585 78.7508 119.566C78.7723 119.548 78.7977 119.536 78.8249 119.53C78.8521 119.523 78.8804 119.524 78.9075 119.53C79.3775 119.648 79.7513 119.776 79.7656 119.78C79.7962 119.79 79.8234 119.808 79.8439 119.833L81.2682 121.492C81.2923 121.521 81.307 121.556 81.3102 121.593C81.3134 121.63 81.3049 121.667 81.286 121.699L81.0011 122.187C80.987 122.213 80.9661 122.236 80.9404 122.251C80.9147 122.267 80.8852 122.275 80.8551 122.276L79.2422 122.34L79.235 122.354ZM79.0677 119.954C79.1496 120.705 79.3169 121.635 79.381 121.994L80.7412 121.937L80.9157 121.642L79.6054 120.118C79.5199 120.1 79.3169 120.025 79.0677 119.954Z" fill="#263238"/>
<path d="M78.206 82.4895C78.206 82.4895 75.9948 84.9428 75.8346 87.7877C75.6744 90.6327 78.9965 94.1969 80.4207 95.6924C81.845 97.1878 89.9882 106.524 89.9882 106.524C89.9882 106.524 87.1397 108.343 85.7973 111.11C84.4549 113.877 79.7086 119.965 79.7086 119.965L81.2112 122.102C81.2112 122.102 90.7786 112.538 91.8931 111.509C93.0076 110.48 95.6069 107.318 95.6069 106.684C95.6069 106.05 91.8112 99.3349 90.8641 96.7143C89.9169 94.0936 84.6187 86.9118 84.6187 86.9118C84.6187 86.9118 81.2895 83.2016 78.206 82.4895Z" fill="#263238"/>
<path d="M81.2112 122.276C81.1851 122.274 81.1599 122.266 81.1371 122.253C81.1144 122.24 81.0947 122.222 81.0794 122.201L79.5769 120.065C79.5546 120.034 79.5426 119.997 79.5426 119.96C79.5426 119.922 79.5546 119.885 79.5769 119.855C79.6231 119.794 84.3232 113.752 85.63 111.031C86.805 108.61 89.0695 106.933 89.714 106.488C88.6458 105.274 81.5886 97.1911 80.2854 95.806C78.9822 94.4209 75.4857 90.7392 75.6566 87.7661C75.8168 84.8891 77.9817 82.4608 78.0743 82.3611C78.0954 82.3366 78.1229 82.3184 78.1536 82.3084C78.1843 82.2983 78.2172 82.2968 78.2487 82.3041C81.3501 83.0162 84.608 86.6338 84.7433 86.7869C84.9712 87.0967 90.0843 94.0471 91.0243 96.6499C91.5157 97.9994 92.7726 100.46 93.8728 102.628C95.1191 105.057 95.7671 106.342 95.7671 106.67C95.7671 107.417 93.0218 110.668 91.9928 111.622C90.9033 112.637 81.4213 122.119 81.3109 122.212C81.2866 122.245 81.2511 122.267 81.2112 122.276ZM79.9294 119.969L81.2361 121.824C82.4574 120.602 90.743 112.32 91.7614 111.373C92.9898 110.234 95.4217 107.189 95.4217 106.68C95.4217 106.41 94.4319 104.49 93.5666 102.799C92.4521 100.624 91.1881 98.1525 90.6896 96.7817C89.7603 94.2251 84.519 87.0931 84.4692 87.0219C84.4193 86.9507 81.2432 83.4257 78.2701 82.6886C77.914 83.1266 76.1337 85.3271 76.0126 87.7982C75.856 90.6182 79.2671 94.2073 80.5489 95.571C81.9732 97.0594 90.038 106.313 90.1199 106.406C90.1371 106.425 90.1498 106.448 90.1572 106.473C90.1646 106.497 90.1665 106.523 90.1626 106.549C90.159 106.574 90.1502 106.598 90.1367 106.619C90.1232 106.641 90.1053 106.659 90.0843 106.673C90.0558 106.673 87.2607 108.5 85.9575 111.188C84.7006 113.773 80.581 119.128 79.9294 119.969Z" fill="#263238"/>
<path d="M86.1356 101.293C86.1109 101.293 86.0864 101.288 86.0637 101.278C86.041 101.268 86.0206 101.254 86.0038 101.236L85.6228 100.826C85.6061 100.81 85.5929 100.79 85.5839 100.768C85.5748 100.747 85.5702 100.724 85.5702 100.7C85.5702 100.677 85.5748 100.653 85.5839 100.632C85.5929 100.61 85.6061 100.59 85.6228 100.574C85.6391 100.557 85.6585 100.544 85.6799 100.535C85.7013 100.526 85.7242 100.521 85.7475 100.521C85.7707 100.521 85.7936 100.526 85.815 100.535C85.8364 100.544 85.8558 100.557 85.8721 100.574L86.2566 100.983C86.2892 101.016 86.3075 101.061 86.3075 101.108C86.3075 101.154 86.2892 101.199 86.2566 101.232C86.2256 101.267 86.1822 101.289 86.1356 101.293Z" fill="white"/>
<path d="M85.16 100.239C85.1353 100.239 85.111 100.234 85.0883 100.224C85.0657 100.214 85.0453 100.2 85.0282 100.182L80.8516 95.6887C80.8349 95.6722 80.8216 95.6525 80.8126 95.6308C80.8036 95.6091 80.7989 95.5858 80.7989 95.5623C80.7989 95.5388 80.8036 95.5155 80.8126 95.4938C80.8216 95.4721 80.8349 95.4525 80.8516 95.4359C80.8849 95.4033 80.9296 95.385 80.9762 95.385C81.0228 95.385 81.0675 95.4033 81.1008 95.4359L85.2775 99.9294C85.294 99.9457 85.3072 99.9651 85.3162 99.9865C85.3252 100.008 85.3298 100.031 85.3298 100.054C85.3298 100.077 85.3252 100.1 85.3162 100.122C85.3072 100.143 85.294 100.162 85.2775 100.179C85.2473 100.213 85.2053 100.235 85.16 100.239Z" fill="white"/>
<path d="M81.1364 117.857C81.0883 117.857 81.0422 117.838 81.0082 117.804C80.9754 117.77 80.957 117.725 80.957 117.677C80.957 117.63 80.9754 117.585 81.0082 117.551C81.0403 117.523 81.1507 117.394 81.5459 116.885C81.5758 116.851 81.6175 116.83 81.6626 116.825C81.7077 116.821 81.7528 116.834 81.7886 116.862C81.8245 116.889 81.8485 116.93 81.8556 116.974C81.8628 117.019 81.8526 117.065 81.8272 117.102C81.407 117.644 81.3038 117.761 81.261 117.815C81.2265 117.844 81.1819 117.859 81.1364 117.857Z" fill="white"/>
<path d="M82.4289 116.209C82.3881 116.214 82.3468 116.205 82.3114 116.184C82.275 116.155 82.2513 116.112 82.2453 116.066C82.2394 116.019 82.2516 115.972 82.2794 115.935C83.4722 114.372 85.0496 112.274 85.0496 112.274L85.3344 112.488C85.3344 112.488 83.7571 114.589 82.5642 116.152C82.5469 116.17 82.5259 116.185 82.5026 116.195C82.4793 116.205 82.4542 116.209 82.4289 116.209Z" fill="white"/>
<path d="M96.7854 91.9714C96.7854 91.9714 98.3664 93.6307 98.7616 94.4212C99.1568 95.2116 99.7906 96.8709 99.3171 96.9492C98.8435 97.0276 98.5266 95.525 98.5266 95.525C98.5266 95.525 98.8399 96.9492 98.6833 97.3409C98.5266 97.7326 98.0495 95.9166 98.0495 95.9166C98.0495 95.9166 98.1314 97.5759 97.8928 97.3409C97.6542 97.1059 97.3409 95.6033 97.3409 95.6033C97.3409 95.6033 97.1807 97.4228 96.9457 97.0276C96.7107 96.6323 96.7071 95.525 96.7071 95.525C96.268 94.8652 95.8719 94.1777 95.5214 93.4669C95.3232 93.1011 95.1907 92.7034 95.1297 92.2919L96.7854 91.9714Z" fill="white"/>
<path d="M98.6263 97.5863C98.5479 97.5863 98.4304 97.5863 98.231 97.0771C98.1883 97.4688 98.0922 97.508 98.0316 97.5365C97.989 97.5554 97.9413 97.5601 97.8958 97.5498C97.8503 97.5395 97.8093 97.5149 97.7788 97.4795C97.5989 97.2079 97.472 96.9046 97.405 96.5858C97.2839 97.216 97.1486 97.248 97.0703 97.2658C97.0166 97.2769 96.9607 97.2691 96.9121 97.2438C96.8634 97.2185 96.825 97.1773 96.8032 97.127C96.5682 96.7424 96.5433 95.838 96.5397 95.5888C96.1062 94.9355 95.715 94.2553 95.3683 93.5521C95.155 93.1609 95.0161 92.7335 94.9588 92.2916C94.9588 92.2506 94.973 92.2108 94.9989 92.179C95.0249 92.1472 95.061 92.1254 95.1012 92.1172L96.7641 91.8002C96.7931 91.7952 96.8229 91.7974 96.8509 91.8067C96.8789 91.8161 96.9041 91.8322 96.9243 91.8537C96.9919 91.9213 98.5301 93.5414 98.9325 94.3461C98.9325 94.3639 99.9152 96.3436 99.6126 96.9383C99.5878 96.9881 99.5518 97.0315 99.5072 97.0649C99.4627 97.0983 99.411 97.1207 99.3562 97.1305C99.2719 97.1398 99.1866 97.1265 99.1091 97.0921C99.0315 97.0577 98.9644 97.0034 98.9147 96.9347C98.9256 97.0971 98.9063 97.2601 98.8577 97.4154C98.8435 97.4655 98.8131 97.5095 98.7712 97.5404C98.7293 97.5713 98.6783 97.5875 98.6263 97.5863ZM98.0494 95.7526C98.089 95.752 98.1277 95.7646 98.1593 95.7885C98.1909 95.8124 98.2136 95.8461 98.2239 95.8843C98.3132 96.2388 98.4214 96.5882 98.5479 96.9311C98.5203 96.4975 98.4596 96.0666 98.3663 95.6422C98.365 95.6185 98.365 95.5947 98.3663 95.571C98.3564 95.5238 98.3657 95.4745 98.392 95.4341C98.4184 95.3937 98.4598 95.3655 98.507 95.3556C98.5542 95.3456 98.6034 95.3549 98.6438 95.3813C98.6842 95.4076 98.7125 95.449 98.7224 95.4962C98.7248 95.5175 98.7248 95.539 98.7224 95.5603C98.8684 96.2119 99.1461 96.7958 99.2957 96.7816C99.4239 96.6392 99.1283 95.5389 98.612 94.5063C98.2809 93.8405 97.0347 92.491 96.7356 92.1706L95.3398 92.434C95.426 92.7691 95.5452 93.0947 95.6959 93.4061C96.0436 94.1064 96.4348 94.7843 96.8673 95.4357C96.8884 95.4646 96.8996 95.4996 96.8994 95.5354C96.8992 95.9276 96.9385 96.3189 97.0169 96.7033C97.0924 96.3389 97.1459 95.9703 97.1771 95.5995C97.1804 95.5571 97.1987 95.5173 97.2287 95.4873C97.2587 95.4573 97.2985 95.4389 97.3409 95.4357C97.3842 95.4306 97.4278 95.4426 97.4624 95.4692C97.497 95.4958 97.5198 95.5349 97.526 95.5781C97.6179 96.0334 97.7368 96.4829 97.8821 96.924C97.8821 96.657 97.8821 96.276 97.8821 95.9377C97.8807 95.8935 97.8955 95.8503 97.9236 95.8162C97.9518 95.7821 97.9915 95.7595 98.0352 95.7526H98.0494Z" fill="#263238"/>
<path d="M96.643 93.5772C96.6163 93.8661 96.6933 94.1552 96.8602 94.3925C97.1443 94.6049 97.4638 94.7652 97.8038 94.8661C97.8038 94.8661 98.8364 96.415 98.8364 95.8987C98.7225 95.0237 98.3812 94.1937 97.8465 93.4917" fill="white"/>
<path d="M98.7794 96.1834C98.6476 96.1834 98.3806 96.0446 97.6898 95.0155C97.3421 94.9126 97.0171 94.7447 96.732 94.5206C96.5272 94.2455 96.432 93.9041 96.465 93.5628C96.4668 93.5394 96.4732 93.5166 96.4838 93.4957C96.4945 93.4747 96.5092 93.4561 96.527 93.4409C96.5449 93.4257 96.5656 93.4141 96.588 93.407C96.6103 93.3998 96.6339 93.3971 96.6573 93.399C96.6807 93.4008 96.7035 93.4072 96.7244 93.4179C96.7453 93.4285 96.7639 93.4432 96.7791 93.4611C96.7944 93.4789 96.8059 93.4996 96.8131 93.522C96.8203 93.5443 96.823 93.5679 96.821 93.5913C96.7948 93.829 96.8527 94.0684 96.9848 94.2678C97.2488 94.4604 97.5438 94.6061 97.8572 94.6986C97.8972 94.7091 97.9317 94.7346 97.9533 94.7698C98.1608 95.0842 98.3879 95.3851 98.6334 95.6707C98.523 95.0725 98.1029 93.9972 97.7219 93.6162C97.6884 93.5827 97.6695 93.5372 97.6695 93.4898C97.6695 93.4424 97.6884 93.3969 97.7219 93.3634C97.7554 93.3299 97.8009 93.311 97.8483 93.311C97.8957 93.311 97.9412 93.3299 97.9747 93.3634C98.491 93.8833 99.0144 95.3645 99.0144 95.8986C99.0226 95.9566 99.0104 96.0156 98.9799 96.0657C98.9493 96.1157 98.9024 96.1535 98.847 96.1727C98.8254 96.1806 98.8024 96.1843 98.7794 96.1834Z" fill="#263238"/>
<path d="M92.121 80.196C92.121 80.196 93.8621 83.6748 94.4924 85.4943C95.1226 87.3138 97.1023 91.818 97.1023 91.818L95.2045 92.9253C95.2045 92.9253 92.8331 89.4466 91.8041 87.6271C91.2322 86.6354 90.7301 85.6051 90.3015 84.5436L92.121 80.196Z" fill="#92E3A9"/>
<path d="M95.2045 93.1034C95.1756 93.1035 95.1471 93.0964 95.1216 93.0827C95.0962 93.069 95.0745 93.0492 95.0585 93.0251C95.0336 92.9895 92.6693 89.5214 91.651 87.7162C91.0741 86.7169 90.5685 85.6782 90.1377 84.6077C90.129 84.5869 90.1245 84.5645 90.1245 84.5419C90.1245 84.5193 90.129 84.4969 90.1377 84.476L91.9572 80.1284C91.9708 80.0975 91.9925 80.0709 92.0202 80.0514C92.0478 80.032 92.0802 80.0204 92.1139 80.0181C92.1482 80.0179 92.1819 80.0271 92.2114 80.0447C92.2409 80.0622 92.265 80.0875 92.2812 80.1178C92.299 80.1534 94.0331 83.6286 94.6597 85.4374C95.2864 87.2462 97.2448 91.7041 97.2661 91.7468C97.2833 91.7869 97.2851 91.8319 97.2714 91.8732C97.2576 91.9145 97.2291 91.9494 97.1914 91.9712L95.2935 93.0785C95.267 93.0954 95.236 93.1041 95.2045 93.1034ZM90.4938 84.5579C90.9166 85.5871 91.4067 86.5874 91.9608 87.5524C92.8581 89.1404 94.8093 92.0352 95.2579 92.6975L96.8745 91.754C96.5184 90.9671 94.8876 87.1821 94.325 85.562C93.8194 84.1128 92.591 81.5634 92.1352 80.6376L90.4938 84.5579Z" fill="#263238"/>
<path d="M91.4231 85.4192L91.1062 89.1223C91.1062 89.1223 88.5746 88.2535 88.101 87.9366C87.6275 87.6197 87.7058 85.4869 88.1794 83.0336C88.6529 80.5803 91.6581 73.4697 91.6581 73.4697L91.4231 85.4192Z" fill="#263238"/>
<path d="M91.1063 89.3149C91.0875 89.3186 91.0681 89.3186 91.0493 89.3149C90.9425 89.2793 88.4892 88.4354 88.0014 88.1114C87.3605 87.6805 87.6026 85.1026 88.0014 83.0268C88.4749 80.5842 91.3697 73.7157 91.4908 73.413C91.5078 73.3753 91.5372 73.3444 91.5741 73.3257C91.611 73.3069 91.6532 73.3013 91.6938 73.3098C91.7339 73.3188 91.7697 73.3415 91.795 73.374C91.8203 73.4064 91.8336 73.4467 91.8326 73.4878L91.5976 85.4231L91.2807 89.1368C91.2782 89.1641 91.2695 89.1904 91.2553 89.2139C91.2411 89.2373 91.2218 89.2572 91.1988 89.2722C91.1725 89.2946 91.1405 89.3094 91.1063 89.3149ZM91.4623 74.4207C90.6505 76.3933 88.7242 81.1859 88.3574 83.0838C87.7842 86.0284 87.923 87.6165 88.2008 87.8016C89.0933 88.2231 90.0114 88.5882 90.9496 88.8947L91.2451 85.4124L91.4623 74.4207Z" fill="#263238"/>
<path d="M89.7496 64.1485C89.7496 64.1485 91.4089 67.4706 91.5691 68.8129C91.7293 70.1553 92.2812 72.6086 91.6474 74.98C91.0136 77.3514 89.511 80.8301 89.276 83.5967C89.041 86.3634 88.4856 89.4469 88.4856 89.4469L87.6951 90.9495L86.2709 88.6564V90.6326C85.4294 89.7867 84.47 89.0671 83.4223 88.4962C81.6812 87.5455 79.47 84.462 79.47 84.462L78.5977 83.5932C78.5977 83.5932 82.3933 68.4925 82.7102 66.438C83.0271 64.3835 85.1599 63.6714 86.424 63.4328C87.688 63.1943 89.7496 64.1485 89.7496 64.1485Z" fill="white"/>
<path d="M87.6951 91.1274C87.6644 91.1276 87.6341 91.1198 87.6073 91.1048C87.5805 91.0898 87.558 91.0682 87.542 91.0419L86.4489 89.2794V90.6324C86.4486 90.6685 86.4377 90.7037 86.4174 90.7335C86.3971 90.7633 86.3684 90.7864 86.3349 90.7998C86.3013 90.8118 86.2649 90.8138 86.2302 90.8056C86.1954 90.7974 86.1638 90.7793 86.1391 90.7535C85.3108 89.9248 84.3684 89.2186 83.3404 88.6563C81.585 87.6985 79.4237 84.6968 79.3276 84.5687L78.4766 83.7212C78.4546 83.7 78.4388 83.6733 78.4306 83.6439C78.4225 83.6144 78.4224 83.5834 78.4303 83.5539C78.4659 83.4008 82.226 68.439 82.5357 66.4129C82.874 64.2374 85.0994 63.5039 86.3955 63.2618C87.6915 63.0196 89.7389 63.9454 89.8244 63.9739C89.8623 63.9893 89.8928 64.0186 89.9098 64.0558C89.9775 64.1911 91.5833 67.417 91.7435 68.7772C91.772 68.998 91.8076 69.2508 91.8468 69.5285C92.0498 70.91 92.356 72.9966 91.8183 75.0119C91.6118 75.7917 91.3092 76.689 90.9923 77.6397C90.3442 79.5695 89.6107 81.7558 89.4541 83.5966C89.2191 86.3419 88.6671 89.4325 88.66 89.4645C88.6563 89.4819 88.6503 89.4986 88.6422 89.5144L87.8518 91.017C87.8369 91.045 87.8149 91.0686 87.788 91.0855C87.7612 91.1023 87.7304 91.1119 87.6987 91.1131L87.6951 91.1274ZM86.2708 88.4783C86.301 88.4783 86.3307 88.4863 86.3569 88.5012C86.3831 88.5162 86.405 88.5377 86.4204 88.5637L87.6809 90.5897L88.3146 89.3898C88.3681 89.08 88.8772 86.1852 89.098 83.5824C89.2582 81.6988 89.9988 79.4876 90.654 77.5293C90.9709 76.5857 91.27 75.692 91.4765 74.9229C91.9928 72.9788 91.6937 70.935 91.4943 69.5819C91.4551 69.3042 91.416 69.0478 91.391 68.8235C91.2486 67.62 89.835 64.7181 89.6107 64.273C89.276 64.127 87.5349 63.3971 86.456 63.6C85.2489 63.8279 83.1838 64.4973 82.8954 66.4486C82.6069 68.3998 79.1638 82.1154 78.8077 83.5218L79.6053 84.3194C79.6445 84.3728 81.8343 87.4029 83.522 88.3216C84.4564 88.8343 85.3235 89.461 86.1035 90.1874V88.6349C86.1035 88.5964 86.116 88.5589 86.1391 88.5281C86.1622 88.4973 86.1947 88.4748 86.2317 88.464L86.2708 88.4783Z" fill="#263238"/>
<path d="M89.9988 65.815C89.9988 65.815 90.9958 67.898 90.8854 69.8101C90.8609 70.8258 90.9085 71.8419 91.0279 72.8509C91.0279 72.8509 90.711 80.7555 90.9495 82.1085C91.1881 83.4616 91.4231 85.4271 91.4231 85.4271C91.4231 85.4271 92.0533 77.2839 92.4486 75.5463C92.8438 73.8087 93.3992 72.1459 92.7655 70.248C92.1317 68.3502 91.6581 66.456 91.0279 65.6655C90.5547 65.125 89.9923 64.6697 89.365 64.3196L89.9988 65.815Z" fill="#92E3A9"/>
<path d="M91.4231 85.5976C91.3791 85.5987 91.3364 85.5832 91.3034 85.5542C91.2704 85.5251 91.2495 85.4847 91.2451 85.4409C91.2451 85.4231 91.0065 83.4541 90.7715 82.1331C90.5365 80.8121 90.8356 73.1674 90.8498 72.8434C90.7283 71.8334 90.6807 70.8159 90.7074 69.799C90.8142 67.9546 89.8493 65.9108 89.8386 65.8823L89.2048 64.3797C89.1909 64.3458 89.1878 64.3083 89.1959 64.2725C89.2041 64.2367 89.2231 64.2043 89.2504 64.1797C89.2777 64.1552 89.3119 64.1396 89.3484 64.1353C89.3848 64.1309 89.4217 64.138 89.4541 64.1554C90.1022 64.5155 90.6828 64.9854 91.1703 65.5441C91.6723 66.1743 92.0605 67.4134 92.5091 68.8448C92.648 69.2827 92.7868 69.7349 92.9399 70.1871C93.5096 71.8962 93.1393 73.438 92.7797 74.9335C92.7263 75.1471 92.6764 75.3607 92.6266 75.5779C92.2385 77.2835 91.6083 85.3555 91.6047 85.4338C91.602 85.4782 91.5824 85.5199 91.55 85.5503C91.5175 85.5808 91.4747 85.5977 91.4302 85.5976H91.4231ZM90.1626 65.7399C90.2232 65.8752 91.1738 67.9048 91.0635 69.8204C91.0399 70.8253 91.0863 71.8306 91.2023 72.8291C91.2023 72.9359 90.8926 80.7587 91.124 82.069C91.213 82.5782 91.302 83.1799 91.3804 83.7318C91.5869 81.2394 91.9892 76.7601 92.2776 75.4996C92.3275 75.2824 92.3774 75.0652 92.4308 74.848C92.7868 73.3383 93.1429 71.9105 92.5981 70.2975C92.445 69.8453 92.3026 69.3896 92.1673 68.9516C91.7471 67.6092 91.3483 66.3452 90.889 65.7684C90.5587 65.378 90.1737 65.0375 89.746 64.7572L90.1626 65.7399Z" fill="#263238"/>
<path d="M88.6422 67.232L88.3681 68.991C88.3681 68.991 86.0323 66.5199 86.1142 65.0173C86.1961 63.5147 86.5094 62.4892 87.6951 62.1688C88.8808 61.8483 89.7176 64.4155 89.9561 65.7579C90.1947 67.1003 89.4078 68.7132 89.4078 68.7132L88.6422 67.232Z" fill="white"/>
<path d="M88.3645 69.1831C88.316 69.1816 88.2699 69.1612 88.2363 69.1261C88.1402 69.0228 85.8507 66.5838 85.9326 65.0242C86.0038 63.6783 86.2602 62.3822 87.6453 62.0155C87.7809 61.9787 87.9228 61.9721 88.0612 61.9961C88.1997 62.0201 88.3311 62.0741 88.4464 62.1544C89.3793 62.749 89.9561 64.7643 90.127 65.747C90.3727 67.1321 89.6001 68.7415 89.5645 68.8092C89.5504 68.8389 89.5282 68.864 89.5005 68.8816C89.4728 68.8993 89.4406 68.9087 89.4078 68.9089C89.3746 68.9106 89.3416 68.9024 89.313 68.8853C89.2845 68.8682 89.2617 68.8429 89.2476 68.8128L88.7206 67.798L88.5319 69.0193C88.5262 69.0522 88.5116 69.0829 88.4896 69.108C88.4676 69.1331 88.4391 69.1517 88.4073 69.1617L88.3645 69.1831ZM87.891 62.3359C87.8392 62.336 87.7877 62.3432 87.7378 62.3573C86.78 62.6137 86.3741 63.365 86.2887 65.042C86.2281 66.1672 87.6595 67.9297 88.247 68.6027L88.4642 67.214C88.4699 67.1773 88.4871 67.1434 88.5133 67.1171C88.5396 67.0909 88.5735 67.0737 88.6102 67.068C88.6474 67.0614 88.6858 67.0669 88.7197 67.0835C88.7536 67.1001 88.7814 67.1272 88.7989 67.1606L89.39 68.3107C89.5965 67.7766 89.9383 66.7155 89.7781 65.8183C89.5858 64.7501 89.0232 62.9697 88.2577 62.4641C88.1531 62.3824 88.0268 62.3329 87.8945 62.3217L87.891 62.3359Z" fill="#263238"/>
<path d="M91.5691 61.9338C91.5691 61.9338 89.9063 64.622 89.3544 65.8077C89.1435 66.2953 88.9058 66.7708 88.6422 67.232C88.6422 67.232 87.6951 64.1485 87.6951 63.2013C87.6951 62.2542 87.7734 60.8264 87.7734 60.8264L89.6713 58.2983L91.5691 61.9338Z" fill="white"/>
<path d="M88.6423 67.4029H88.6173C88.5841 67.3985 88.5527 67.3848 88.5269 67.3634C88.5011 67.342 88.4818 67.3137 88.4713 67.2818C88.4322 67.1537 87.5171 64.1592 87.5171 63.1978C87.5171 62.2364 87.5954 60.83 87.5954 60.8157C87.5964 60.7796 87.6089 60.7446 87.631 60.716L89.5289 58.188C89.5468 58.1638 89.5706 58.1446 89.598 58.1322C89.6254 58.1197 89.6555 58.1144 89.6855 58.1167C89.7153 58.1201 89.7438 58.1306 89.7686 58.1473C89.7934 58.164 89.8137 58.1865 89.828 58.2129L91.7258 61.8483C91.7407 61.8756 91.7486 61.9062 91.7486 61.9373C91.7486 61.9684 91.7407 61.999 91.7258 62.0263C91.7258 62.0513 90.0665 64.7182 89.5217 65.879C89.3103 66.3743 89.0725 66.8581 88.8096 67.3281C88.7909 67.3543 88.7655 67.375 88.7361 67.3882C88.7067 67.4013 88.6743 67.4064 88.6423 67.4029ZM87.9479 60.8834C87.9479 61.154 87.8732 62.3646 87.8732 63.1942C87.8732 63.9064 88.4357 65.9003 88.6921 66.7549C88.7989 66.5412 88.9592 66.2136 89.1942 65.7152C89.6962 64.647 91.0706 62.386 91.3626 61.9088L89.6428 58.6117L87.9479 60.8834Z" fill="#263238"/>
<path d="M93.8622 52.0529C93.8622 52.0529 96.0734 54.1074 96.3903 56.5571C96.5335 57.6073 96.3435 58.6759 95.8472 59.6124C95.3508 60.5489 94.5731 61.306 93.6236 61.777C91.9644 62.5675 90.7751 62.4891 89.9882 61.1432C89.2013 59.7973 90.0665 54.1074 91.2522 52.765C91.5562 52.3858 91.9726 52.1126 92.4415 51.9847C92.9103 51.8567 93.4077 51.8806 93.8622 52.0529Z" fill="#263238"/>
<path d="M91.7899 62.4606C91.3819 62.4607 90.9821 62.3458 90.6364 62.1292C90.2907 61.9125 90.013 61.6029 89.8351 61.2358C89.009 59.8364 89.8742 54.0575 91.1169 52.6475C91.4472 52.2413 91.897 51.9494 92.4026 51.8133C92.9081 51.6771 93.4437 51.7037 93.9334 51.8891C93.952 51.8963 93.9689 51.9072 93.9832 51.9211C94.0758 52.0066 96.2478 54.0575 96.5682 56.55C96.7092 57.634 96.5094 58.735 95.9964 59.7003C95.4834 60.6657 94.6828 61.4474 93.7055 61.9372C93.1136 62.2515 92.4593 62.4302 91.7899 62.4606ZM93.0468 52.092C92.7274 52.0954 92.4128 52.1693 92.1254 52.3085C91.8379 52.4476 91.5848 52.6484 91.3839 52.8967C90.2303 54.2035 89.3829 59.7795 90.1413 61.0684C90.8534 62.2648 91.8611 62.4321 93.5452 61.631C94.4584 61.1708 95.2049 60.4367 95.6805 59.5315C96.1561 58.6263 96.337 57.5951 96.1979 56.582C95.9131 54.353 93.9796 52.4267 93.7482 52.206C93.5232 52.1259 93.2855 52.0873 93.0468 52.092Z" fill="#263238"/>
<path d="M92.9934 53.16C92.9934 53.16 94.261 53.8721 94.261 56.1616C94.261 57.4292 93.3103 60.2741 93.1536 61.1465C93.1173 61.3387 93.0434 61.522 92.9362 61.6856C92.829 61.8493 92.6906 61.9902 92.5289 62.1004C92.3671 62.2105 92.1853 62.2876 91.9937 62.3274C91.8022 62.3672 91.6046 62.3688 91.4124 62.3322C90.7003 62.1755 88.8844 60.5163 88.4892 60.1958C88.0939 59.8753 87.6204 58.6149 87.6987 56.7171C87.777 54.8192 89.9882 51.9743 92.9934 53.16Z" fill="white"/>
<path d="M91.6902 62.5389C91.5823 62.5394 91.4748 62.5275 91.3697 62.5033C90.7929 62.3751 89.6962 61.4636 88.7099 60.6197C88.5639 60.4915 88.4429 60.3919 88.3752 60.3349C87.8874 59.9468 87.4388 58.5759 87.5171 56.7101C87.5836 56.0259 87.8031 55.3654 88.1593 54.7774C88.5156 54.1894 88.9994 53.689 89.5752 53.3133C90.0834 52.9751 90.6679 52.7687 91.2758 52.7127C91.8837 52.6568 92.496 52.7531 93.0575 52.9928H93.0788C93.1322 53.0249 94.4354 53.7833 94.4354 56.1511C94.4354 57.0306 94.0082 58.583 93.6663 59.8293C93.5097 60.399 93.3744 60.8975 93.3103 61.1645C93.2696 61.3813 93.1856 61.5877 93.0632 61.7713C92.9408 61.9548 92.7827 62.1118 92.5981 62.2327C92.3319 62.4213 92.0162 62.5277 91.6902 62.5389ZM91.5869 53.0569C90.9403 53.0606 90.309 53.2537 89.771 53.6124C89.2447 53.9591 88.8017 54.4178 88.4736 54.9559C88.1455 55.4939 87.9404 56.0978 87.8732 56.7244C87.7948 58.5617 88.2506 59.7794 88.5853 60.0572C88.6601 60.1141 88.7811 60.2174 88.9414 60.3491C89.5787 60.8975 90.9068 62.0369 91.4338 62.1579C91.775 62.2205 92.1272 62.1455 92.4133 61.9494C92.6995 61.7532 92.8965 61.4519 92.9613 61.1111C93.0112 60.8227 93.15 60.3242 93.3174 59.7474C93.6378 58.5866 94.0758 56.995 94.0758 56.1618C94.0758 54.1002 93.0076 53.3845 92.9079 53.3133C92.4877 53.1452 92.0395 53.0583 91.5869 53.0569Z" fill="#263238"/>
<path d="M93.6236 52.6865C92.0245 54.5945 90.5463 56.6007 89.1977 58.6933C87.3782 61.6202 87.4566 62.5673 85.954 61.8552C84.4514 61.1431 80.7376 57.4329 81.2112 54.8193C81.6848 52.2058 83.109 48.2571 88.247 48.2571C93.385 48.2571 95.0479 50.3116 93.6236 52.6865Z" fill="#263238"/>
<path d="M86.7337 62.2578C86.4346 62.2404 86.1429 62.1578 85.8792 62.0157C84.4229 61.3249 80.5382 57.5471 81.0367 54.7876C81.8343 50.4009 84.3267 48.0793 88.247 48.0793C91.2379 48.0793 93.2853 48.7915 94.0081 50.0626C94.4532 50.846 94.3642 51.7824 93.7767 52.7758L93.7589 52.8008C92.1678 54.7042 90.6945 56.7031 89.3472 58.7862C88.9093 59.4983 88.5817 60.0858 88.3146 60.5665C87.7022 61.6632 87.3711 62.2578 86.7337 62.2578ZM88.247 48.4354C84.4692 48.4354 82.1618 50.5932 81.3856 54.8446C80.9441 57.2694 84.4585 60.9439 86.0323 61.6881C87.0186 62.1546 87.1681 61.884 88.0049 60.3814C88.2719 59.9007 88.6031 59.3132 89.0446 58.601C90.3975 56.5051 91.878 54.4943 93.4776 52.58C93.9974 51.7112 94.0722 50.8994 93.6983 50.2371C93.0396 49.0763 91.1062 48.4354 88.247 48.4354Z" fill="#263238"/>
<path d="M86.4275 63.4363C86.4275 63.4363 86.9047 67.0753 87.6168 69.1333C88.0578 70.397 88.6688 71.5949 89.4327 72.6939C89.4327 72.6939 87.4566 77.3584 85.6371 80.5274C83.8176 83.6963 81.6848 87.5632 81.6848 87.5632L77.3265 83.7533C77.3265 83.7533 79.9365 77.6682 80.0148 76.0872C80.0932 74.5063 80.6486 64.1484 81.4391 64.0701C82.2295 63.9917 86.4275 63.4363 86.4275 63.4363Z" fill="#92E3A9"/>
<path d="M81.6847 87.7272C81.6417 87.7276 81.5999 87.7124 81.5672 87.6845L77.2197 83.8888C77.1921 83.8638 77.1728 83.8309 77.1646 83.7946C77.1563 83.7583 77.1594 83.7204 77.1734 83.6859C77.1983 83.6253 79.7727 77.6078 79.8474 76.0768C80.2498 68.0582 80.7803 63.9706 81.4319 63.8922C82.2081 63.8139 86.3634 63.2656 86.4168 63.262C86.4401 63.2581 86.4638 63.2593 86.4866 63.2654C86.5093 63.2716 86.5305 63.2826 86.5486 63.2976C86.5849 63.3271 86.609 63.3689 86.6162 63.4151C86.6162 63.4507 87.0969 67.0577 87.7948 69.0694C88.2288 70.3139 88.8275 71.4947 89.5751 72.5802C89.5941 72.6053 89.6061 72.6351 89.6098 72.6663C89.6136 72.6976 89.609 72.7293 89.5965 72.7583C89.5965 72.8045 87.5954 77.4654 85.7937 80.5917C83.992 83.7179 81.877 87.5848 81.8414 87.6239C81.8297 87.648 81.8122 87.6687 81.7904 87.6843C81.7686 87.6998 81.7433 87.7097 81.7168 87.713L81.6847 87.7272ZM77.5508 83.7072L81.6349 87.2679C82.0906 86.4418 83.9173 83.1482 85.4839 80.4208C87.1361 77.5473 88.9449 73.3742 89.2297 72.7048C88.4848 71.6139 87.8863 70.43 87.4494 69.1834C86.8299 67.403 86.3812 64.3907 86.2815 63.6323C85.4661 63.7391 82.1725 64.1735 81.4711 64.2448C81.0225 64.6008 80.4883 70.4723 80.2071 76.091C80.1287 77.5865 77.9282 82.8206 77.5508 83.7072Z" fill="#263238"/>
<path d="M75.8133 77.4619L82.6675 64.9106L83.5755 63.8424L84.8537 63.6929C84.3101 64.2308 83.8167 64.8171 83.3796 65.4447C83.0236 66.0678 76.7034 77.5509 76.7034 77.5509L75.8133 77.4619Z" fill="white"/>
<path d="M76.7034 77.7286H76.6856L75.7955 77.6396C75.7662 77.6363 75.7382 77.6258 75.7139 77.6091C75.6897 77.5923 75.67 77.5698 75.6566 77.5435C75.6426 77.5178 75.6352 77.489 75.6352 77.4598C75.6352 77.4306 75.6426 77.4018 75.6566 77.3761L82.5108 64.8249L82.5322 64.7928L83.4402 63.7246C83.4704 63.6924 83.5105 63.6711 83.5541 63.6641L84.8324 63.5145C84.869 63.5104 84.9061 63.5178 84.9384 63.5356C84.9707 63.5534 84.9967 63.5809 85.0127 63.6141C85.0287 63.6473 85.034 63.6847 85.0279 63.7211C85.0217 63.7575 85.0044 63.7911 84.9784 63.8172C84.4473 64.3421 83.9636 64.9129 83.5327 65.5228C83.1767 66.1352 76.9242 77.5114 76.8601 77.6289C76.8454 77.6581 76.8231 77.6828 76.7955 77.7003C76.7679 77.7179 76.7361 77.7277 76.7034 77.7286ZM76.0981 77.312L76.6144 77.3726C77.2482 76.226 82.9025 65.9536 83.2372 65.3661C83.574 64.8546 83.9605 64.3775 84.3909 63.9418L83.6787 64.0237L82.8277 65.0171L76.0981 77.312Z" fill="#263238"/>
<path d="M73.9154 94.0826C73.9154 94.0826 73.3813 96.3543 73.3172 96.689C73.2531 97.0237 72.249 98.0243 72.1137 98.626C71.9784 99.2278 71.982 99.826 71.7149 99.6266C71.5879 99.4954 71.4919 99.3375 71.434 99.1643C71.376 98.9912 71.3577 98.8072 71.3802 98.626C71.3802 98.626 69.1762 97.5578 69.1085 97.1555C69.0409 96.7531 72.4484 94.0186 72.4484 94.0186L73.9154 94.0826Z" fill="white"/>
<path d="M71.8076 99.8438C71.7346 99.8421 71.6643 99.8157 71.6082 99.7691C71.4708 99.6335 71.3624 99.4714 71.2895 99.2927C71.2167 99.114 71.1809 98.9223 71.1844 98.7294C70.3228 98.3056 69.0018 97.5935 68.9341 97.184C68.8771 96.8529 70.0237 95.7384 72.3381 93.8797C72.3536 93.865 72.3722 93.8539 72.3925 93.8471C72.4128 93.8403 72.4343 93.8381 72.4556 93.8406L73.9261 93.9082C73.9519 93.9081 73.9774 93.9142 74.0003 93.9259C74.0232 93.9377 74.043 93.9548 74.0579 93.9759C74.0742 93.9967 74.0856 94.0211 74.0912 94.047C74.0967 94.0729 74.0963 94.0997 74.0899 94.1254C74.0899 94.1468 73.5558 96.3971 73.4917 96.7247C73.3748 97.0162 73.2059 97.2841 72.9933 97.5152C72.6946 97.8557 72.454 98.243 72.2811 98.6617C72.2491 98.8112 72.2242 98.9572 72.2028 99.0925C72.1351 99.4878 72.0924 99.7477 71.8966 99.826C71.8683 99.8375 71.8381 99.8436 71.8076 99.8438ZM69.2937 97.1377C69.4148 97.3621 70.4937 97.9959 71.4586 98.4659C71.497 98.4844 71.5272 98.5164 71.5436 98.5558C71.56 98.5952 71.5615 98.6392 71.5476 98.6795C71.5324 98.9523 71.613 99.2218 71.7755 99.4415C71.8117 99.3069 71.839 99.1701 71.8574 99.032C71.8823 98.8931 71.9073 98.74 71.9393 98.5869C72.1139 98.1201 72.3708 97.6884 72.6977 97.3122C72.8674 97.114 73.0132 96.8965 73.1321 96.6642C73.1855 96.3864 73.5487 94.834 73.684 94.2643L72.4983 94.2073C71.0029 95.4108 69.4255 96.8102 69.2937 97.1377Z" fill="#263238"/>
<path d="M71.3802 98.6262C71.489 97.9684 71.7145 97.3353 72.0461 96.7568L71.3802 98.6262Z" fill="white"/>
<path d="M71.3802 98.804H71.3518C71.3283 98.8006 71.3059 98.7924 71.2857 98.7801C71.2655 98.7677 71.2481 98.7514 71.2344 98.732C71.2208 98.7127 71.2112 98.6908 71.2063 98.6677C71.2013 98.6446 71.2012 98.6207 71.2058 98.5975C71.3163 97.9135 71.5516 97.2557 71.9001 96.6569C71.9136 96.6377 71.9308 96.6213 71.9506 96.6087C71.9705 96.5961 71.9926 96.5876 72.0158 96.5836C72.039 96.5796 72.0627 96.5803 72.0856 96.5855C72.1085 96.5908 72.1302 96.6005 72.1493 96.6142C72.1685 96.6274 72.1848 96.6442 72.1973 96.6638C72.2099 96.6833 72.2184 96.7052 72.2224 96.728C72.2263 96.7509 72.2257 96.7744 72.2205 96.797C72.2153 96.8197 72.2056 96.841 72.1921 96.8599C71.8788 97.4122 71.6632 98.0145 71.5547 98.6402C71.5512 98.6843 71.5314 98.7255 71.4991 98.7558C71.4668 98.7861 71.4245 98.8032 71.3802 98.804Z" fill="#263238"/>
<path d="M75.1723 77.3406L83.1339 78.3625L81.3145 90.4224L78.5834 90.6503L71.188 86.5555L75.1723 77.3406Z" fill="white"/>
<path d="M78.5834 90.8282C78.5533 90.8271 78.524 90.8185 78.498 90.8033L71.1025 86.7085C71.0642 86.6873 71.0352 86.6525 71.0213 86.611C71.0075 86.5694 71.0098 86.5241 71.0277 86.4842L75.0085 77.2692C75.0237 77.2338 75.0499 77.2042 75.0833 77.185C75.1167 77.1657 75.1554 77.1578 75.1937 77.1624L83.1553 78.1879C83.2028 78.1943 83.2461 78.2184 83.2764 78.2555C83.3042 78.2948 83.3157 78.3433 83.3084 78.3908L81.4889 90.4472C81.4835 90.4871 81.4646 90.5239 81.4355 90.5517C81.4064 90.5795 81.3688 90.5966 81.3287 90.6003L78.5977 90.8246L78.5834 90.8282ZM71.4159 86.4771L78.6226 90.4686L81.1578 90.2549L82.9381 78.5048L75.2898 77.5221L71.4159 86.4771Z" fill="#263238"/>
<path d="M80.9726 78.2488L78.5835 90.6505L81.3145 90.4226L83.134 78.3627L80.9726 78.2488Z" fill="white"/>
<path d="M78.5834 90.8283C78.5584 90.8285 78.5336 90.8231 78.5108 90.8127C78.488 90.8022 78.4679 90.7869 78.4517 90.7677C78.4329 90.7474 78.4193 90.723 78.4119 90.6963C78.4044 90.6697 78.4034 90.6417 78.4089 90.6146L80.7981 78.2165C80.8066 78.1744 80.8301 78.1368 80.8641 78.1106C80.8981 78.0845 80.9404 78.0715 80.9833 78.074L83.1446 78.188C83.1694 78.1885 83.1937 78.1945 83.2159 78.2056C83.2381 78.2167 83.2575 78.2326 83.2728 78.2521C83.2889 78.271 83.3004 78.2934 83.3066 78.3174C83.3128 78.3415 83.3134 78.3666 83.3084 78.3909L81.4889 90.4473C81.4834 90.4872 81.4646 90.524 81.4355 90.5518C81.4064 90.5796 81.3688 90.5967 81.3287 90.6004L78.5977 90.8247L78.5834 90.8283ZM81.1186 78.4372L78.8042 90.4508L81.1578 90.255L82.9381 78.5298L81.1186 78.4372Z" fill="#263238"/>
<path d="M83.5754 63.8424C83.5754 63.8424 85.751 65.9539 84.4977 69.5929C83.2443 73.2318 80.9726 78.2381 80.9726 78.2381H82.1085L85.9219 68.3894C86.123 67.4687 86.0613 66.51 85.7439 65.6227C85.5104 64.9521 85.2123 64.3058 84.8537 63.6929L83.5754 63.8424Z" fill="white"/>
<path d="M82.1085 78.4409H80.9726C80.9432 78.4413 80.9141 78.4343 80.888 78.4206C80.8619 78.407 80.8396 78.387 80.8231 78.3626C80.8084 78.3365 80.8007 78.3071 80.8007 78.2772C80.8007 78.2472 80.8084 78.2178 80.8231 78.1917C80.8445 78.1418 83.1055 73.1534 84.341 69.5607C85.5409 66.0677 83.4829 64.0132 83.4615 63.9954C83.4369 63.972 83.4194 63.9421 83.4112 63.9091C83.403 63.8761 83.4044 63.8415 83.4153 63.8093C83.4262 63.7771 83.446 63.7487 83.4725 63.7274C83.499 63.7061 83.531 63.6929 83.5648 63.6892L84.843 63.5397C84.8754 63.5365 84.908 63.5422 84.9374 63.5559C84.9669 63.5697 84.9921 63.5911 85.0104 63.618C85.3761 64.2439 85.6813 64.9032 85.9219 65.587C86.2544 66.5068 86.3186 67.5021 86.1071 68.4569L82.2758 78.3163C82.2651 78.3524 82.243 78.384 82.2128 78.4064C82.1827 78.4289 82.1461 78.441 82.1085 78.4409ZM81.2432 78.0849H81.9839L85.7546 68.3501C85.9387 67.471 85.8771 66.5581 85.5766 65.7116C85.3503 65.0904 85.0777 64.4869 84.7612 63.9064L83.928 64.0061C84.4656 64.6969 85.6869 66.7086 84.6686 69.6782C83.5861 72.8045 81.7239 77.0167 81.2432 78.0849Z" fill="#263238"/>
<path d="M84.138 63.842C84.138 63.842 80.4991 63.842 80.4207 64.3975C80.3424 64.953 77.0986 77.9279 76.7034 78.6401C76.3082 79.3522 74.8091 81.6453 74.4922 83.3828C74.1753 85.1204 72.1209 94.2143 72.1209 94.2143L74.332 94.5312C74.332 94.5312 78.6831 84.9673 79.0784 83.3045C79.4736 81.6417 80.0255 78.4834 80.0255 78.4834C80.0255 78.4834 85.0852 68.2038 85.0104 67.2567C84.9721 66.7184 84.8656 66.1872 84.6935 65.6758" fill="#92E3A9"/>
<path d="M74.332 94.6842H74.3071L72.096 94.3673C72.0713 94.3637 72.0475 94.3552 72.0262 94.3424C72.0048 94.3296 71.9861 94.3126 71.9713 94.2925C71.9455 94.2499 71.9366 94.199 71.9464 94.1501C71.9678 94.0611 74.0045 85.042 74.3178 83.3258C74.5884 81.841 75.6886 79.9859 76.2797 78.9889C76.3937 78.8002 76.4862 78.6328 76.5503 78.5296C76.9064 77.8887 80.1323 65.1522 80.2463 64.3618C80.3282 63.7778 82.4076 63.6497 84.1381 63.6497C84.185 63.6506 84.2297 63.6696 84.2629 63.7028C84.2961 63.736 84.3152 63.7808 84.3161 63.8277C84.3161 63.8749 84.2973 63.9202 84.2639 63.9536C84.2305 63.987 84.1853 64.0057 84.1381 64.0057C82.3577 64.0057 80.7305 64.1944 80.5774 64.4188C80.5774 64.5078 77.3016 77.8816 76.8458 78.7005C76.7818 78.8144 76.6856 78.9747 76.5717 79.1669C75.9913 80.1461 74.9124 81.9656 74.6525 83.3863C74.3641 84.9708 72.6194 92.7259 72.3203 94.0397L74.211 94.3068C74.7166 93.1923 78.5265 84.7607 78.8897 83.2368C79.2778 81.5989 79.8297 78.4548 79.8368 78.4228C79.8352 78.4074 79.8352 78.3919 79.8368 78.3765C81.8628 74.2604 84.8537 67.9011 84.8003 67.2423C84.7626 66.72 84.6598 66.2045 84.4941 65.7077C84.4859 65.6857 84.4822 65.6624 84.483 65.6389C84.4839 65.6155 84.4893 65.5924 84.4991 65.5711C84.5188 65.5281 84.5548 65.4946 84.5991 65.478C84.6435 65.4615 84.6927 65.4633 84.7357 65.483C84.7788 65.5027 84.8123 65.5387 84.8288 65.5831C85.0052 66.111 85.1153 66.6588 85.1564 67.2139C85.2347 68.1752 80.7376 77.351 80.1715 78.5118C80.1181 78.8109 79.5982 81.7484 79.2244 83.3187C78.8291 84.9744 74.6489 94.1857 74.4709 94.5774C74.4589 94.6057 74.4399 94.6304 74.4155 94.6491C74.3912 94.6678 74.3624 94.6799 74.332 94.6842Z" fill="#263238"/>
<path d="M49.1725 129.322C49.1725 129.072 49.0982 128.826 48.9589 128.618C48.8196 128.41 48.6217 128.247 48.39 128.151C48.1584 128.055 47.9035 128.03 47.6577 128.079C47.4118 128.128 47.1859 128.249 47.0086 128.426C46.8314 128.603 46.7106 128.829 46.6617 129.075C46.6128 129.321 46.6379 129.576 46.7339 129.807C46.8298 130.039 46.9923 130.237 47.2007 130.376C47.4092 130.516 47.6542 130.59 47.905 130.59C48.2411 130.59 48.5636 130.456 48.8013 130.219C49.039 129.981 49.1725 129.658 49.1725 129.322Z" fill="#263238"/>
<path d="M47.905 130.782C47.618 130.783 47.3374 130.699 47.0985 130.54C46.8596 130.381 46.6733 130.154 46.5632 129.889C46.4531 129.624 46.4241 129.333 46.4799 129.051C46.5357 128.77 46.6738 128.511 46.8767 128.308C47.0796 128.106 47.3381 127.968 47.6196 127.912C47.901 127.856 48.1927 127.885 48.4576 127.995C48.7226 128.105 48.9489 128.291 49.1078 128.53C49.2668 128.769 49.3513 129.05 49.3506 129.337C49.3506 129.72 49.1983 130.088 48.9272 130.359C48.6561 130.63 48.2884 130.782 47.905 130.782ZM47.905 128.244C47.6886 128.243 47.4769 128.306 47.2967 128.426C47.1165 128.546 46.9758 128.716 46.8925 128.916C46.8092 129.116 46.7871 129.336 46.8289 129.548C46.8706 129.76 46.9745 129.955 47.1272 130.108C47.2799 130.262 47.4747 130.366 47.6868 130.409C47.899 130.451 48.1189 130.43 48.3189 130.347C48.5188 130.264 48.6898 130.124 48.81 129.944C48.9303 129.765 48.9945 129.553 48.9945 129.337C48.9964 129.192 48.9696 129.049 48.9158 128.915C48.8619 128.781 48.782 128.659 48.6807 128.556C48.5794 128.453 48.4587 128.371 48.3255 128.315C48.1924 128.259 48.0494 128.23 47.905 128.229V128.244Z" fill="#263238"/>
<path d="M49.5749 129.358C49.5039 129.358 49.4344 129.337 49.3755 129.298C49.3366 129.272 49.3033 129.238 49.2774 129.199C49.2516 129.16 49.2337 129.116 49.2247 129.07C49.2158 129.024 49.216 128.977 49.2254 128.931C49.2348 128.885 49.2531 128.842 49.2793 128.803L68.0261 101.186C68.079 101.108 68.1609 101.054 68.2537 101.036C68.3465 101.018 68.4427 101.037 68.5211 101.09C68.5994 101.143 68.6536 101.225 68.6716 101.318C68.6897 101.411 68.6701 101.507 68.6172 101.585L49.8704 129.202C49.8377 129.25 49.7937 129.289 49.7422 129.317C49.6906 129.344 49.6332 129.358 49.5749 129.358Z" fill="#263238"/>
<path d="M68.3216 102.083C68.1771 102.082 68.0361 102.039 67.9157 101.959C67.8384 101.906 67.7723 101.838 67.7212 101.759C67.6702 101.68 67.6353 101.592 67.6184 101.5C67.6015 101.407 67.603 101.313 67.6229 101.221C67.6428 101.129 67.6806 101.042 67.7341 100.965L70.7251 96.6178C70.8323 96.462 70.9969 96.3551 71.1829 96.3207C71.3689 96.2863 71.5609 96.3272 71.7167 96.4344C71.8725 96.5416 71.9794 96.7063 72.0138 96.8923C72.0482 97.0782 72.0073 97.2702 71.9001 97.4261L68.9091 101.774C68.8438 101.869 68.7561 101.947 68.6537 102.001C68.5513 102.055 68.4374 102.083 68.3216 102.083Z" fill="#263238"/>
<path d="M58.666 111.753L53.1223 107.913C52.5613 107.524 51.7916 107.664 51.4031 108.225L41.746 122.166C41.3574 122.727 41.4972 123.497 42.0581 123.885L47.6019 127.725C48.1628 128.114 48.9325 127.974 49.3211 127.413L58.9781 113.472C59.3667 112.911 59.227 112.141 58.666 111.753Z" fill="#263238"/>
<path d="M48.293 128.119C48.007 128.118 47.7279 128.031 47.4919 127.87L41.9444 124.017C41.6391 123.802 41.4307 123.475 41.3641 123.107C41.2975 122.739 41.378 122.36 41.5883 122.052L51.2484 108.108C51.4638 107.803 51.7905 107.594 52.1582 107.528C52.5259 107.461 52.905 107.542 53.2138 107.752L58.7578 111.594C59.0631 111.809 59.2715 112.136 59.3381 112.504C59.4047 112.871 59.3242 113.251 59.1138 113.559L49.4538 127.503C49.324 127.691 49.1508 127.846 48.9487 127.953C48.7467 128.06 48.5218 128.117 48.293 128.119ZM47.6948 127.578C47.9258 127.735 48.209 127.795 48.4838 127.746C48.7587 127.696 49.0033 127.542 49.1654 127.314L58.8112 113.367C58.9678 113.136 59.0276 112.852 58.9777 112.577C58.9277 112.302 58.7721 112.058 58.5441 111.897L53.0002 108.055C52.7688 107.898 52.4853 107.838 52.2104 107.888C51.9356 107.938 51.6912 108.094 51.5297 108.322L41.8732 122.265C41.7924 122.378 41.7356 122.507 41.7062 122.643C41.6768 122.779 41.6755 122.919 41.7023 123.056C41.726 123.192 41.7766 123.322 41.8512 123.438C41.9258 123.554 42.0228 123.654 42.1367 123.732L47.6948 127.578Z" fill="#263238"/>
<path d="M46.9993 107.804L50.7482 110.41L42.1854 122.728L38.8132 120.384C38.426 120.115 38.1616 119.703 38.0781 119.239C37.9946 118.775 38.0989 118.297 38.3681 117.91L45.1834 108.105C45.3804 107.822 45.6819 107.628 46.0216 107.567C46.3613 107.506 46.7114 107.582 46.9948 107.779L46.9993 107.804Z" fill="#263238"/>
<path d="M42.3895 123.159C42.3526 123.159 42.3167 123.148 42.2862 123.127L38.9072 120.784C38.484 120.491 38.1946 120.041 38.1025 119.535C38.0104 119.028 38.1231 118.505 38.4158 118.082L45.2238 108.254C45.4488 107.932 45.7923 107.712 46.1792 107.641C46.5662 107.571 46.9651 107.657 47.2889 107.881L51.0454 110.487C51.0841 110.514 51.1106 110.556 51.1192 110.602C51.1279 110.649 51.118 110.697 51.0917 110.736L42.5462 123.084C42.5286 123.109 42.505 123.129 42.4775 123.142C42.4501 123.155 42.4198 123.161 42.3895 123.159ZM46.4451 107.973C46.2631 107.973 46.084 108.017 45.9228 108.102C45.7616 108.186 45.6232 108.308 45.5193 108.457L38.7078 118.288C38.4689 118.634 38.3771 119.06 38.4526 119.474C38.528 119.887 38.7646 120.253 39.1101 120.492L42.3432 122.732L50.6965 110.676L47.086 108.183C46.8988 108.049 46.6752 107.976 46.4451 107.973Z" fill="#263238"/>
<path d="M47.7736 108.321L51.5225 110.927L42.9598 123.245L39.5963 120.907C39.2091 120.638 38.9447 120.226 38.8612 119.762C38.7777 119.298 38.882 118.82 39.1512 118.432L45.9563 108.643C46.0542 108.502 46.179 108.382 46.3234 108.289C46.4679 108.197 46.6292 108.134 46.7981 108.104C46.9669 108.074 47.1401 108.078 47.3075 108.115C47.4749 108.152 47.6333 108.222 47.7736 108.321Z" fill="#92E3A9"/>
<path d="M43.1444 123.69C43.1075 123.689 43.0716 123.678 43.0411 123.658L39.662 121.315C39.2391 121.022 38.9498 120.573 38.8577 120.067C38.7655 119.561 38.8781 119.039 39.1707 118.616L45.9929 108.788C46.1033 108.628 46.2444 108.491 46.408 108.386C46.5715 108.28 46.7544 108.208 46.946 108.173C47.1375 108.138 47.3341 108.142 47.5243 108.183C47.7146 108.225 47.8947 108.303 48.0545 108.415L51.8145 111.017C51.8533 111.044 51.8801 111.085 51.8893 111.131C51.893 111.154 51.8921 111.178 51.8866 111.2C51.8811 111.223 51.8711 111.244 51.8572 111.263L43.3117 123.615C43.284 123.652 43.2433 123.677 43.1978 123.686L43.1444 123.69ZM47.1999 108.507C47.0174 108.506 46.8374 108.55 46.6754 108.634C46.5135 108.719 46.3746 108.841 46.2706 108.991L39.4769 118.819C39.3582 118.99 39.2744 119.182 39.2303 119.386C39.1863 119.589 39.1829 119.8 39.2202 120.004C39.2576 120.209 39.3351 120.404 39.4482 120.579C39.5613 120.754 39.7078 120.905 39.8792 121.023L43.1123 123.266L51.4656 111.199L47.8515 108.706C47.6647 108.576 47.4421 108.506 47.2142 108.507H47.1999Z" fill="#263238"/>
<path d="M48.3393 108.823L44.4725 114.075C44.4392 114.121 44.4152 114.172 44.4018 114.227C44.3884 114.281 44.386 114.338 44.3946 114.394C44.4032 114.449 44.4227 114.503 44.4519 114.551C44.4812 114.599 44.5196 114.64 44.5651 114.674L45.5051 115.368C45.5504 115.401 45.6018 115.425 45.6565 115.439C45.7111 115.452 45.7678 115.454 45.8234 115.446C45.879 115.437 45.9323 115.418 45.9803 115.389C46.0283 115.359 46.0701 115.321 46.1033 115.275L50.0022 109.977L48.3393 108.823Z" fill="#263238"/>
<path d="M59.5414 112.36L53.9977 108.52C53.4367 108.132 52.667 108.271 52.2784 108.832L42.6214 122.774C42.2328 123.335 42.3726 124.104 42.9335 124.493L48.4773 128.333C49.0382 128.722 49.8079 128.582 50.1965 128.021L59.8535 114.08C60.2421 113.519 60.1023 112.749 59.5414 112.36Z" fill="#92E3A9"/>
<path d="M49.1725 128.728C48.8865 128.727 48.6073 128.64 48.3714 128.478L42.8239 124.637C42.5186 124.421 42.3101 124.094 42.2435 123.727C42.1769 123.359 42.2575 122.98 42.4678 122.671L52.1278 108.728C52.2325 108.575 52.3668 108.444 52.5228 108.344C52.6787 108.243 52.8531 108.175 53.0358 108.144C53.22 108.106 53.4098 108.107 53.5936 108.147C53.7773 108.186 53.9511 108.262 54.104 108.372L59.6515 112.213C59.9568 112.429 60.1652 112.756 60.2318 113.123C60.2984 113.491 60.2179 113.87 60.0075 114.179L50.3475 128.119C50.2155 128.308 50.0397 128.462 49.835 128.568C49.6304 128.674 49.403 128.729 49.1725 128.728ZM48.5743 128.183C48.8054 128.339 49.0881 128.398 49.3621 128.348C49.6362 128.298 49.8799 128.143 50.0413 127.916L59.7013 113.972C59.8569 113.741 59.916 113.459 59.8661 113.185C59.8162 112.911 59.6613 112.667 59.4343 112.505L53.8904 108.664C53.659 108.507 53.3755 108.447 53.1006 108.497C52.8257 108.547 52.5813 108.703 52.4198 108.931L42.7598 122.874C42.6042 123.105 42.5451 123.388 42.595 123.662C42.6449 123.936 42.7998 124.18 43.0268 124.341L48.5743 128.183Z" fill="#263238"/>
<path d="M48.439 126.983L47.5062 129.586L47.9726 129.853L49.7066 127.784L48.439 126.983Z" fill="white"/>
<path d="M47.9726 130.035C47.9414 130.034 47.9109 130.025 47.8836 130.01L47.4172 129.743C47.3807 129.722 47.3528 129.69 47.3384 129.65C47.324 129.611 47.3242 129.568 47.3388 129.529L48.2717 126.923C48.2812 126.898 48.296 126.875 48.3151 126.857C48.3341 126.839 48.357 126.825 48.3821 126.816C48.4073 126.807 48.4342 126.804 48.4607 126.807C48.4872 126.81 48.5127 126.819 48.5352 126.834L49.8028 127.635C49.8242 127.648 49.8426 127.666 49.8567 127.687C49.8709 127.707 49.8804 127.731 49.8847 127.756C49.8885 127.781 49.887 127.807 49.8802 127.831C49.8735 127.856 49.8617 127.879 49.8455 127.898L48.1079 129.971C48.0909 129.99 48.0702 130.006 48.0469 130.017C48.0236 130.028 47.9984 130.034 47.9726 130.035ZM47.7234 129.508L47.9299 129.625L49.4396 127.827L48.5317 127.254L47.7234 129.508Z" fill="#263238"/>
<path d="M55.9627 109.874L51.6507 115.657C51.5786 115.754 51.5478 115.875 51.5652 115.995C51.5825 116.114 51.6466 116.222 51.7433 116.294L52.6335 116.96C52.7306 117.031 52.8519 117.061 52.9711 117.044C53.0903 117.027 53.198 116.963 53.2708 116.867L57.6291 111.028L55.9627 109.874Z" fill="#263238"/>
<path d="M52.7731 120.116L49.0176 117.423C48.5334 117.075 47.8594 117.186 47.5121 117.67L44.642 121.672C44.2947 122.156 44.4057 122.83 44.8899 123.177L48.6455 125.871C49.1296 126.218 49.8037 126.107 50.151 125.623L53.021 121.622C53.3683 121.137 53.2573 120.463 52.7731 120.116Z" fill="#263238"/>
<path d="M49.2616 126.25C48.9998 126.249 48.7447 126.167 48.5316 126.015L44.7751 123.305C44.6408 123.209 44.5268 123.087 44.4396 122.947C44.3524 122.806 44.2938 122.65 44.267 122.487C44.2402 122.324 44.2458 122.157 44.2835 121.997C44.3212 121.836 44.3903 121.684 44.4867 121.55L47.3566 117.551C47.4525 117.417 47.574 117.303 47.714 117.216C47.854 117.129 48.0099 117.07 48.1727 117.043C48.3354 117.016 48.5018 117.022 48.6624 117.06C48.823 117.097 48.9746 117.166 49.1084 117.263L52.8649 119.955C53.1354 120.15 53.3176 120.444 53.3716 120.773C53.4257 121.102 53.3472 121.439 53.1533 121.71L50.2835 125.712C50.1687 125.877 50.016 126.012 49.8381 126.106C49.6603 126.199 49.4625 126.249 49.2616 126.25ZM48.7381 125.723C48.8341 125.792 48.9428 125.842 49.058 125.869C49.1733 125.896 49.2928 125.9 49.4096 125.881C49.5264 125.862 49.6383 125.82 49.7388 125.757C49.8393 125.695 49.9264 125.613 49.9951 125.516L52.8649 121.525C53.0032 121.33 53.0592 121.089 53.0205 120.854C52.9818 120.618 52.8517 120.408 52.6584 120.268L48.9019 117.572C48.7075 117.434 48.4664 117.378 48.231 117.417C47.9955 117.456 47.7849 117.586 47.645 117.779L44.7751 121.781C44.6368 121.976 44.5809 122.217 44.6196 122.452C44.6583 122.688 44.7884 122.898 44.9817 123.038L48.7381 125.723Z" fill="#263238"/>
<path d="M53.1952 120.538L49.4396 117.844C48.9554 117.497 48.2814 117.608 47.9341 118.092L45.064 122.094C44.7168 122.578 44.8277 123.252 45.3119 123.599L49.0675 126.293C49.5517 126.64 50.2257 126.529 50.573 126.045L53.4431 122.043C53.7903 121.559 53.6794 120.885 53.1952 120.538Z" fill="#92E3A9"/>
<path d="M49.6817 126.67C49.4196 126.671 49.1641 126.588 48.9517 126.435L45.1953 123.743C45.0612 123.646 44.9475 123.524 44.8607 123.384C44.7739 123.243 44.7158 123.087 44.6896 122.924C44.6612 122.761 44.6658 122.595 44.7031 122.434C44.7405 122.273 44.8097 122.121 44.9068 121.988L47.7732 117.985C47.9687 117.716 48.2628 117.534 48.5915 117.48C48.9203 117.426 49.257 117.504 49.5286 117.697L53.2815 120.392C53.5525 120.587 53.7354 120.881 53.7901 121.21C53.8449 121.539 53.7669 121.876 53.5735 122.148L50.7071 126.153C50.5893 126.315 50.4349 126.445 50.2566 126.535C50.0783 126.625 49.8813 126.671 49.6817 126.67ZM49.1583 126.153C49.3526 126.292 49.5938 126.348 49.8292 126.309C50.0647 126.27 50.2753 126.14 50.4152 125.947L53.285 121.945C53.3545 121.849 53.4042 121.74 53.4314 121.625C53.4586 121.51 53.4627 121.39 53.4435 121.273C53.4243 121.157 53.3822 121.045 53.3195 120.944C53.2569 120.844 53.175 120.757 53.0785 120.688L49.3256 117.996C49.2297 117.926 49.1208 117.876 49.0053 117.848C48.8897 117.821 48.7698 117.816 48.6526 117.836C48.4176 117.873 48.2065 118.001 48.0651 118.192L45.1953 122.19C45.126 122.287 45.0765 122.396 45.0496 122.511C45.0227 122.626 45.0189 122.746 45.0384 122.863C45.0579 122.98 45.1004 123.091 45.1634 123.192C45.2264 123.292 45.3086 123.379 45.4053 123.447L49.1583 126.153Z" fill="#263238"/>
</svg>
